<svg id="Layer_1" data-name="Layer 1" xmlns="http://www.w3.org/2000/svg" viewBox="0 0 2955.9 2536.18"><defs><style>.cls-1{fill:#ff7dee;}.cls-1,.cls-2,.cls-3,.cls-4,.cls-5{stroke:#000;stroke-linecap:round;stroke-linejoin:round;stroke-width:6px;}.cls-2{fill:#00feb9;}.cls-3{fill:#ffd400;}.cls-4{fill:none;}.cls-5{fill:#fff;}</style></defs><rect class="cls-1" x="405.03" y="480.1" width="1030" height="149"/><path d="M578.88,551.39c0-11.4,8.75-19.55,19.87-19.55,8.53,0,16.31,5.18,18.52,14.1H609c-1.4-4.49-5.24-7.19-10.26-7.19-7.13,0-12,5.4-12,12.64,0,7.88,5.24,12.64,12,12.64,5.29,0,8.85-3.14,9.88-6.32h-8.26v-6.16h16v18.74h-6.11v-5.24a14.89,14.89,0,0,1-12.2,5.89C587.19,570.94,578.88,562.78,578.88,551.39Z"/><path d="M630.72,570.29h-7V551.5h-3.46v-5.94h10.48Zm-3.84-37.8a4.53,4.53,0,0,1,4.54,4.53,4.51,4.51,0,0,1-9,0A4.52,4.52,0,0,1,626.88,532.49Z"/><path d="M647.3,562.73l5.61-17.17h7.4l-8.8,24.73h-8.7l-8.42-24.73H642Z"/><path d="M687.26,560H668.84a5.88,5.88,0,0,0,10.64,2.43l7.29.75c-2.21,5.29-6.86,7.78-12.37,7.78a12.62,12.62,0,0,1-13-13c0-7.56,5.46-13,12.86-13,6.8,0,13,4.43,13,14.8Zm-18.58-4.7h11.07a5.36,5.36,0,0,0-5.45-4.54A5.52,5.52,0,0,0,668.68,555.28Z"/><path d="M705.72,544.91c5.35,0,9.18,3.4,9.18,9.18v16.2h-7V555.87c0-3.13-2-4.43-4.21-4.43a6.87,6.87,0,0,0-5.24,2.81v16h-7V545.56h6.86v1c0,.86-.11,1.94-.11,1.94A9.74,9.74,0,0,1,705.72,544.91Z"/><path d="M725.49,545.56a4.73,4.73,0,1,1-4.7,4.75A4.72,4.72,0,0,1,725.49,545.56Zm0,16a4.7,4.7,0,1,1,0,9.4,4.7,4.7,0,0,1,0-9.4Z"/><path d="M762.37,552.47h-3c-3.57,0-5.19,1.67-5.19,6v11.83h-7V545.56H754v3.94a6.51,6.51,0,0,1,6.42-4.27,8.1,8.1,0,0,1,2,.22Z"/><path d="M764.47,557.92a13.23,13.23,0,1,1,13.23,13A12.87,12.87,0,0,1,764.47,557.92Zm7,0c0,3.84,2.54,6.75,6.21,6.75s6.16-2.91,6.16-6.75-2.54-6.75-6.16-6.75S771.49,554,771.49,557.92Z"/><path d="M793.85,557.92a13.23,13.23,0,1,1,13.23,13A12.87,12.87,0,0,1,793.85,557.92Zm7,0c0,3.84,2.54,6.75,6.21,6.75s6.16-2.91,6.16-6.75-2.54-6.75-6.16-6.75S800.87,554,800.87,557.92Z"/><path d="M833.65,536.16v9.4H839v5.94h-5.34v11.18c0,1.56,1.24,1.78,2.32,1.78,1.78,0,3.24-.16,3.24-.16v6s-3.4.32-5.46.32c-3.51,0-7.12-.59-7.12-5.56V551.5h-3.89v-5.94h3.89v-9.4Z"/><path d="M840.83,573.8h27v5.94h-27Z"/><path d="M885.16,544.91c5.35,0,9.18,3.4,9.18,9.18v16.2h-7V555.87c0-3.13-2-4.43-4.21-4.43a6.87,6.87,0,0,0-5.24,2.81v16h-7V545.56h6.86v1c0,.86-.11,1.94-.11,1.94A9.74,9.74,0,0,1,885.16,544.91Z"/><path d="M898.55,557.92a13.23,13.23,0,1,1,13.23,13A12.87,12.87,0,0,1,898.55,557.92Zm7,0c0,3.84,2.54,6.75,6.21,6.75s6.16-2.91,6.16-6.75-2.54-6.75-6.16-6.75S905.57,554,905.57,557.92Z"/><path d="M947.69,567.16a9,9,0,0,1-7.72,3.78c-6.8,0-12-5.46-12-13s5.13-13,11.94-13c3.78,0,6.64,1.73,7.88,3.83,0-.81-.11-2.86-.11-4.69V532.49h7v37.8h-7Zm-12.47-9.24c0,3.78,2.59,6.81,6.32,6.81s6.32-3,6.32-6.81-2.6-6.75-6.32-6.75S935.22,554.09,935.22,557.92Z"/><path d="M985,560H966.59a5.88,5.88,0,0,0,10.64,2.43l7.29.75c-2.21,5.29-6.86,7.78-12.36,7.78a12.62,12.62,0,0,1-13-13c0-7.56,5.45-13,12.85-13,6.8,0,13,4.43,13,14.8Zm-18.58-4.7H977.5a5.36,5.36,0,0,0-5.45-4.54A5.52,5.52,0,0,0,966.43,555.28Z"/><path d="M993.43,561.6a4.74,4.74,0,0,1,4.86,4.69,6.84,6.84,0,0,1-.7,2.7l-4.27,7.94h-5.67l3.08-6.8a4.51,4.51,0,0,1-2-3.84A4.63,4.63,0,0,1,993.43,561.6Z"/><path d="M1039.76,545.56v26.57c0,3.88-1.94,7.61-7.94,7.61h-10.74V573.8h9c1.24,0,2.64-.32,2.64-2.21v-4.76c-1.19,2-4.16,3.73-7.67,3.73-6.69,0-11.88-5.08-11.88-12.8s5.13-12.85,11.83-12.85c3.73,0,6.59,1.73,7.83,3.83,0-.27-.11-.75-.11-2v-1.13Zm-13.12,19c3.73,0,6.26-2.75,6.26-6.75s-2.53-6.8-6.26-6.8-6.21,2.75-6.21,6.8S1023,564.51,1026.64,564.51Z"/><path d="M1044.24,557.92a13.23,13.23,0,1,1,13.23,13A12.87,12.87,0,0,1,1044.24,557.92Zm7,0c0,3.84,2.54,6.75,6.21,6.75s6.16-2.91,6.16-6.75-2.54-6.75-6.16-6.75S1051.26,554,1051.26,557.92Z"/><path d="M1088.9,553.82c0-1.78-1.4-2.92-4.1-2.92a16.63,16.63,0,0,0-7.45,2.33l-2.76-5.3a21.19,21.19,0,0,1,10.59-3c5.61,0,10.74,2.59,10.74,9.13v16.25h-7V568c-1.29,1.94-4.1,3-6.91,3-5.24,0-8.64-3.73-8.64-7.78,0-4.7,3.46-7.61,9-7.61h4.86c1.19,0,1.73-.54,1.73-1.46Zm0,7.61v-1.78a3.06,3.06,0,0,1-2.16.54h-2.64c-2.22,0-3.51,1-3.51,2.7s1.34,2.92,3.51,2.92C1086.63,565.81,1088.9,564.51,1088.9,561.43Z"/><path d="M1108.66,570.29h-7v-37.8h7Z"/><path d="M1111.69,573.8h27v5.94h-27Z"/><path d="M1152.24,562.73l5.62-17.17h7.4l-8.81,24.73h-8.69l-8.42-24.73H1147Z"/><path d="M1181.94,553.82c0-1.78-1.4-2.92-4.1-2.92a16.63,16.63,0,0,0-7.45,2.33l-2.76-5.3a21.19,21.19,0,0,1,10.59-3c5.61,0,10.74,2.59,10.74,9.13v16.25h-7V568c-1.29,1.94-4.1,3-6.91,3-5.24,0-8.64-3.73-8.64-7.78,0-4.7,3.46-7.61,9-7.61h4.86c1.19,0,1.73-.54,1.73-1.46Zm0,7.61v-1.78a3.06,3.06,0,0,1-2.16.54h-2.64c-2.22,0-3.51,1-3.51,2.7s1.35,2.92,3.51,2.92C1179.67,565.81,1181.94,564.51,1181.94,561.43Z"/><path d="M1201.71,570.29h-7v-37.8h7Z"/><path d="M1207.38,561.22V545.56h7v14.36c0,3.4,2.26,4.75,4.75,4.75s4.75-1.35,4.75-4.75V545.56h7v15.66c0,5.18-4.11,9.72-11.72,9.72S1207.38,566.4,1207.38,561.22Z"/><path d="M1260.78,560h-18.41a5.88,5.88,0,0,0,10.64,2.43l7.29.75c-2.22,5.29-6.86,7.78-12.37,7.78a12.62,12.62,0,0,1-13-13c0-7.56,5.45-13,12.85-13,6.81,0,13,4.43,13,14.8Zm-18.57-4.7h11.07a5.37,5.37,0,0,0-5.46-4.54A5.51,5.51,0,0,0,1242.21,555.28Z"/><rect class="cls-1" x="405.03" y="775.64" width="1030" height="149"/><polygon class="cls-2" points="919.98 1378.66 405.03 1231.71 920 1065.06 1435.03 1231.71 919.98 1378.66"/><path d="M548.88,838.07c0-4.86,3.24-6.53,7-6.53,1.89,0,5.13.32,5.13.32v6.43s-2.16-.27-2.91-.27c-1.35,0-2.22.32-2.22,2.05v5h4.75V851H555.9v18.79h-7V851H545v-5.94h3.89Z"/><path d="M579.77,852h-3c-3.56,0-5.18,1.68-5.18,6v11.82h-7V845.09h6.8V849a6.52,6.52,0,0,1,6.43-4.26,8.06,8.06,0,0,1,1.94.21Z"/><path d="M581.88,857.46a13.23,13.23,0,1,1,13.23,13A12.87,12.87,0,0,1,581.88,857.46Zm7,0c0,3.83,2.53,6.75,6.21,6.75s6.15-2.92,6.15-6.75-2.54-6.75-6.15-6.75S588.9,853.57,588.9,857.46Z"/><path d="M627.13,844.44c5.34,0,9.18,3.41,9.18,9.18v16.2h-7V855.41c0-3.14-2-4.43-4.21-4.43a6.83,6.83,0,0,0-5.24,2.81v16h-7V845.09h6.86v1c0,.87-.11,2-.11,2A9.75,9.75,0,0,1,627.13,844.44Z"/><path d="M650.94,835.69v9.4h5.35V851h-5.35v11.18c0,1.57,1.24,1.78,2.32,1.78,1.78,0,3.24-.16,3.24-.16v6s-3.4.33-5.45.33c-3.51,0-7.13-.6-7.13-5.56V851H640v-5.94h3.89v-9.4Z"/><path d="M669.62,869.82h-7V851h-3.45v-5.94h10.47ZM665.79,832a4.54,4.54,0,0,1,4.54,4.54,4.51,4.51,0,0,1-9,0A4.52,4.52,0,0,1,665.79,832Z"/><path d="M699.92,859.51H681.5a5.87,5.87,0,0,0,10.64,2.43l7.29.76c-2.21,5.29-6.86,7.77-12.36,7.77a12.61,12.61,0,0,1-13-13c0-7.56,5.45-13,12.85-13,6.8,0,13,4.43,13,14.8Zm-18.58-4.7h11.07a5.36,5.36,0,0,0-5.45-4.53A5.52,5.52,0,0,0,681.34,854.81Z"/><path d="M719.25,852h-3c-3.56,0-5.18,1.68-5.18,6v11.82h-7V845.09h6.8V849a6.52,6.52,0,0,1,6.43-4.26,8.06,8.06,0,0,1,1.94.21Z"/><path d="M720.17,873.33h27v5.94h-27Z"/><path d="M768.39,866.69c-1.24,2.11-4.16,3.78-7.72,3.78-6.81,0-12-5.45-12-13s5.13-13,11.93-13c3.78,0,6.65,1.73,7.89,3.84,0-.27-.11-.76-.11-2v-1.14h7v34.18h-7Zm-12.48-9.23c0,3.78,2.6,6.8,6.32,6.8s6.32-3,6.32-6.8-2.59-6.75-6.32-6.75S755.91,853.62,755.91,857.46Z"/><path d="M781.08,860.75V845.09h7v14.37c0,3.4,2.27,4.75,4.75,4.75s4.75-1.35,4.75-4.75V845.09h7v15.66c0,5.19-4.11,9.72-11.72,9.72S781.08,865.94,781.08,860.75Z"/><path d="M834.48,859.51H816.07a5.87,5.87,0,0,0,10.64,2.43l7.29.76c-2.22,5.29-6.86,7.77-12.37,7.77a12.61,12.61,0,0,1-13-13c0-7.56,5.46-13,12.85-13,6.81,0,13,4.43,13,14.8Zm-18.57-4.7H827a5.37,5.37,0,0,0-5.46-4.53A5.51,5.51,0,0,0,815.91,854.81Z"/><path d="M838.26,860.75V845.09h7v14.37c0,3.4,2.27,4.75,4.76,4.75s4.75-1.35,4.75-4.75V845.09h7v15.66c0,5.19-4.1,9.72-11.71,9.72S838.26,865.94,838.26,860.75Z"/><path d="M891.67,859.51H873.25a5.87,5.87,0,0,0,10.64,2.43l7.29.76c-2.21,5.29-6.86,7.77-12.36,7.77a12.61,12.61,0,0,1-13-13c0-7.56,5.45-13,12.85-13,6.8,0,13,4.43,13,14.8Zm-18.58-4.7h11.07a5.36,5.36,0,0,0-5.45-4.53A5.52,5.52,0,0,0,873.09,854.81Z"/><path d="M900,861.08a4.7,4.7,0,1,1-4.7,4.69A4.7,4.7,0,0,1,900,861.08Z"/><path d="M917.32,879.27h-7V845.09h7v1.19c0,1.19-.11,1.73-.11,2,1.19-2.11,4.1-3.84,7.83-3.84,6.8,0,12,5.46,12,13s-5.24,13-12,13c-3.51,0-6.43-1.67-7.67-3.78Zm-.16-21.81c0,3.78,2.59,6.8,6.31,6.8s6.32-3,6.32-6.8-2.59-6.75-6.32-6.75S917.16,853.62,917.16,857.46Z"/><path d="M941.18,860.75V845.09h7v14.37c0,3.4,2.27,4.75,4.76,4.75s4.75-1.35,4.75-4.75V845.09h7v15.66c0,5.19-4.11,9.72-11.72,9.72S941.18,865.94,941.18,860.75Z"/><path d="M984.92,852.65a9,9,0,0,0-6.1-2.54c-1.83,0-2.48.92-2.48,1.68s.54,1.46,1.83,1.89l4.11,1.29c5.07,1.68,6.8,4.43,6.8,7.67,0,3.62-3.08,7.83-9.83,7.83a15.9,15.9,0,0,1-10.9-3.89l3.72-4.86a12.2,12.2,0,0,0,7.29,3.08c1.68,0,2.7-.86,2.7-1.83,0-1.25-.81-1.78-2.81-2.38L975,859.35c-4-1.3-5.72-4-5.72-7.24,0-4.05,3.67-7.67,9.61-7.67a14.76,14.76,0,0,1,10,3.68Z"/><path d="M1007.87,844.44c5.35,0,9.18,3.41,9.18,9.18v16.2h-7V855.41c0-3.14-2-4.43-4.21-4.43a6.84,6.84,0,0,0-5.24,2.81v16h-7V832h6.92v14c0,.87-.11,2-.11,2A9.72,9.72,0,0,1,1007.87,844.44Z"/><path d="M1030.82,832h6.32v.87a34.47,34.47,0,0,0-8.21,21.71,37.27,37.27,0,0,0,8.21,22.68v.81h-6.32c-5.45-6.65-9.18-14.91-9.18-23.49S1025.37,838.77,1030.82,832Z"/><path d="M1054.91,852h-3c-3.57,0-5.19,1.68-5.19,6v11.82h-7V845.09h6.81V849a6.51,6.51,0,0,1,6.42-4.26,8.09,8.09,0,0,1,2,.21Z"/><path d="M1057,857.46a13.23,13.23,0,1,1,13.23,13A12.88,12.88,0,0,1,1057,857.46Zm7,0c0,3.83,2.54,6.75,6.21,6.75s6.16-2.92,6.16-6.75-2.54-6.75-6.16-6.75S1064,853.57,1064,857.46Z"/><path d="M1086.39,857.46a13.23,13.23,0,1,1,13.23,13A12.88,12.88,0,0,1,1086.39,857.46Zm7,0c0,3.83,2.54,6.75,6.21,6.75s6.16-2.92,6.16-6.75-2.54-6.75-6.16-6.75S1093.41,853.57,1093.41,857.46Z"/><path d="M1126.19,835.69v9.4h5.34V851h-5.34v11.18c0,1.57,1.24,1.78,2.32,1.78,1.78,0,3.24-.16,3.24-.16v6s-3.4.33-5.46.33c-3.51,0-7.12-.6-7.12-5.56V851h-3.89v-5.94h3.89v-9.4Z"/><path d="M1133.37,873.33h27v5.94h-27Z"/><path d="M1177.7,844.44c5.35,0,9.18,3.41,9.18,9.18v16.2h-7V855.41c0-3.14-2-4.43-4.21-4.43a6.84,6.84,0,0,0-5.24,2.81v16h-7V845.09h6.86v1c0,.87-.11,2-.11,2A9.75,9.75,0,0,1,1177.7,844.44Z"/><path d="M1191.09,857.46a13.23,13.23,0,1,1,13.23,13A12.88,12.88,0,0,1,1191.09,857.46Zm7,0c0,3.83,2.54,6.75,6.21,6.75s6.16-2.92,6.16-6.75-2.54-6.75-6.16-6.75S1198.11,853.57,1198.11,857.46Z"/><path d="M1240.23,866.69a9,9,0,0,1-7.72,3.78c-6.8,0-12-5.45-12-13s5.13-13,11.94-13c3.78,0,6.64,1.73,7.88,3.84,0-.81-.11-2.86-.11-4.7V832h7v37.8h-7Zm-12.47-9.23c0,3.78,2.59,6.8,6.32,6.8s6.32-3,6.32-6.8-2.6-6.75-6.32-6.75S1227.76,853.62,1227.76,857.46Z"/><path d="M1277.55,859.51h-18.42a5.87,5.87,0,0,0,10.64,2.43l7.29.76c-2.21,5.29-6.86,7.77-12.36,7.77a12.61,12.61,0,0,1-13-13c0-7.56,5.45-13,12.85-13,6.8,0,13,4.43,13,14.8Zm-18.58-4.7H1270a5.36,5.36,0,0,0-5.45-4.53A5.52,5.52,0,0,0,1259,854.81Z"/><path d="M1283.87,878.09h-6.32v-.81a37.26,37.26,0,0,0,8.2-22.68,34.47,34.47,0,0,0-8.2-21.71V832h6.32c5.45,6.75,9.18,14,9.18,22.58S1289.32,871.44,1283.87,878.09Z"/><path d="M1559.62,1196.24h-7.4v-37.8h9.88l12.75,25.17v-25.17h7.39v37.8h-9.12l-13.5-26.24Z"/><path d="M1587,1183.88a13.24,13.24,0,1,1,13.24,13A12.88,12.88,0,0,1,1587,1183.88Zm7,0c0,3.83,2.53,6.75,6.21,6.75s6.15-2.92,6.15-6.75-2.54-6.75-6.15-6.75S1594,1180,1594,1183.88Z"/><path d="M1548.22,1899.19h9l9.23,14.36h.27l9.13-14.36h8.64l-14.31,21.22V1937h-7.45v-16.42Z"/><path d="M1604.71,1926.67h-18.42a5.87,5.87,0,0,0,10.64,2.43l7.29.76c-2.21,5.29-6.86,7.77-12.37,7.77a12.62,12.62,0,0,1-13-13c0-7.56,5.46-13,12.86-13,6.8,0,13,4.43,13,14.8Zm-18.58-4.7h11.07a5.36,5.36,0,0,0-5.45-4.53A5.52,5.52,0,0,0,1586.13,1922Z"/><path d="M1623.44,1919.81a9,9,0,0,0-6.1-2.54c-1.83,0-2.48.92-2.48,1.68s.54,1.46,1.83,1.89l4.11,1.29c5.07,1.68,6.8,4.43,6.8,7.67,0,3.62-3.08,7.83-9.83,7.83a16,16,0,0,1-10.9-3.88l3.72-4.87a12.2,12.2,0,0,0,7.29,3.08c1.68,0,2.7-.86,2.7-1.83,0-1.25-.81-1.78-2.81-2.38l-4.21-1.24c-4-1.3-5.72-4-5.72-7.24,0-4,3.67-7.67,9.61-7.67a14.76,14.76,0,0,1,10,3.68Z"/><path d="M980,1419.19h9l9.24,14.36h.27l9.12-14.36h8.64L1002,1440.41V1457h-7.45v-16.42Z"/><path d="M1036.52,1446.67h-18.41a5.87,5.87,0,0,0,10.64,2.43l7.29.76c-2.22,5.29-6.86,7.78-12.37,7.78a12.62,12.62,0,0,1-13-13c0-7.56,5.45-13,12.85-13,6.81,0,13,4.42,13,14.79ZM1018,1442H1029a5.37,5.37,0,0,0-5.46-4.53A5.51,5.51,0,0,0,1018,1442Z"/><path d="M1055.26,1439.81a9,9,0,0,0-6.1-2.53c-1.84,0-2.49.91-2.49,1.67s.54,1.46,1.84,1.89l4.1,1.3c5.08,1.67,6.81,4.42,6.81,7.67,0,3.61-3.08,7.83-9.83,7.83a16,16,0,0,1-10.91-3.89l3.73-4.86a12.25,12.25,0,0,0,7.29,3.07c1.67,0,2.7-.86,2.7-1.83,0-1.24-.81-1.78-2.81-2.38l-4.21-1.24c-4-1.3-5.73-4-5.73-7.24,0-4,3.68-7.66,9.62-7.66a14.75,14.75,0,0,1,10,3.67Z"/><path d="M991.43,2193.74H984v-37.8h9.89l12.74,25.17v-25.17h7.4v37.8h-9.13l-13.5-26.24Z"/><path d="M1018.81,2181.38a13.23,13.23,0,1,1,13.23,13A12.87,12.87,0,0,1,1018.81,2181.38Zm7,0c0,3.83,2.54,6.75,6.21,6.75s6.16-2.92,6.16-6.75-2.54-6.75-6.16-6.75S1025.83,2177.49,1025.83,2181.38Z"/><path d="M634,1238.2h-7v-37.81h7Z"/><path d="M664.25,1227.88H645.84a5.87,5.87,0,0,0,10.64,2.43l7.29.76c-2.22,5.29-6.86,7.77-12.37,7.77a12.61,12.61,0,0,1-13-13c0-7.56,5.45-13,12.85-13,6.81,0,13,4.43,13,14.8Zm-18.57-4.7h11.07a5.37,5.37,0,0,0-5.46-4.53A5.51,5.51,0,0,0,645.68,1223.18Z"/><path d="M682.72,1212.81c5.35,0,9.18,3.41,9.18,9.19v16.2h-7v-14.42c0-3.13-2-4.43-4.21-4.43a6.84,6.84,0,0,0-5.24,2.81v16h-7v-24.74h6.86v1c0,.86-.11,1.94-.11,1.94A9.75,9.75,0,0,1,682.72,1212.81Z"/><path d="M722.73,1213.46V1240c0,3.89-1.94,7.62-7.94,7.62H704.05v-5.94h9c1.24,0,2.64-.33,2.64-2.22v-4.75c-1.19,2-4.15,3.73-7.67,3.73-6.69,0-11.88-5.08-11.88-12.8s5.13-12.86,11.83-12.86c3.73,0,6.59,1.73,7.83,3.84,0-.27-.11-.76-.11-2.05v-1.14Zm-13.12,19c3.73,0,6.26-2.76,6.26-6.75s-2.53-6.81-6.26-6.81-6.21,2.76-6.21,6.81S705.94,1232.42,709.61,1232.42Z"/><path d="M737.64,1204.07v9.39H743v5.94h-5.34v11.18c0,1.57,1.24,1.78,2.32,1.78,1.78,0,3.24-.16,3.24-.16v6s-3.4.32-5.46.32c-3.51,0-7.12-.59-7.12-5.56V1219.4h-3.89v-5.94h3.89v-9.39Z"/><path d="M762.15,1212.81c5.35,0,9.18,3.41,9.18,9.19v16.2h-7v-14.42c0-3.13-2-4.43-4.21-4.43a6.84,6.84,0,0,0-5.24,2.81v16h-7v-37.81h6.91v14c0,.86-.1,1.94-.1,1.94A9.7,9.7,0,0,1,762.15,1212.81Z"/><path d="M785.1,1200.39h6.32v.87a34.5,34.5,0,0,0-8.21,21.71,37.24,37.24,0,0,0,8.21,22.68v.81H785.1c-5.45-6.64-9.18-14.91-9.18-23.49S779.65,1207.14,785.1,1200.39Z"/><path d="M796.28,1206.44c0-4.86,3.24-6.53,7-6.53,1.89,0,5.13.32,5.13.32v6.43s-2.16-.27-2.92-.27c-1.35,0-2.21.32-2.21,2v5h4.75v5.94H803.3v18.8h-7v-18.8h-3.89v-5.94h3.89Z"/><path d="M827.17,1220.38h-3c-3.57,0-5.19,1.67-5.19,6v11.83h-7v-24.74h6.81v4a6.51,6.51,0,0,1,6.42-4.27,8.09,8.09,0,0,1,1.95.21Z"/><path d="M829.27,1225.83a13.23,13.23,0,1,1,13.23,13A12.88,12.88,0,0,1,829.27,1225.83Zm7,0c0,3.83,2.54,6.75,6.21,6.75s6.16-2.92,6.16-6.75-2.54-6.75-6.16-6.75S836.29,1221.94,836.29,1225.83Z"/><path d="M874.53,1212.81c5.34,0,9.18,3.41,9.18,9.19v16.2h-7v-14.42c0-3.13-2-4.43-4.22-4.43a6.82,6.82,0,0,0-5.23,2.81v16h-7v-24.74h6.85v1c0,.86-.1,1.94-.1,1.94A9.73,9.73,0,0,1,874.53,1212.81Z"/><path d="M898.34,1204.07v9.39h5.34v5.94h-5.34v11.18c0,1.57,1.24,1.78,2.32,1.78,1.78,0,3.24-.16,3.24-.16v6s-3.4.32-5.45.32c-3.51,0-7.13-.59-7.13-5.56V1219.4h-3.89v-5.94h3.89v-9.39Z"/><path d="M917,1238.2h-7v-18.8h-3.45v-5.94H917Zm-3.83-37.81a4.53,4.53,0,0,1,4.53,4.54,4.51,4.51,0,0,1-9,0A4.52,4.52,0,0,1,913.19,1200.39Z"/><path d="M947.32,1227.88H928.9a5.87,5.87,0,0,0,10.64,2.43l7.29.76c-2.21,5.29-6.86,7.77-12.36,7.77a12.62,12.62,0,0,1-13-13c0-7.56,5.46-13,12.86-13,6.8,0,13,4.43,13,14.8Zm-18.58-4.7h11.07a5.36,5.36,0,0,0-5.45-4.53A5.52,5.52,0,0,0,928.74,1223.18Z"/><path d="M966.65,1220.38h-3c-3.57,0-5.19,1.67-5.19,6v11.83h-7v-24.74h6.81v4a6.51,6.51,0,0,1,6.42-4.27,8.09,8.09,0,0,1,1.95.21Z"/><path d="M967.57,1241.71h27v5.94h-27Z"/><path d="M1015.79,1235.06c-1.24,2.11-4.16,3.78-7.72,3.78-6.81,0-12-5.45-12-13s5.13-13,11.93-13c3.78,0,6.64,1.73,7.89,3.84,0-.27-.11-.76-.11-2.05v-1.14h7v34.19h-7Zm-12.48-9.23c0,3.78,2.6,6.8,6.32,6.8s6.32-3,6.32-6.8-2.59-6.75-6.32-6.75S1003.31,1222,1003.31,1225.83Z"/><path d="M1028.48,1229.12v-15.66h7v14.37c0,3.4,2.27,4.75,4.75,4.75s4.75-1.35,4.75-4.75v-14.37h7v15.66c0,5.19-4.11,9.72-11.72,9.72S1028.48,1234.31,1028.48,1229.12Z"/><path d="M1081.88,1227.88h-18.41a5.87,5.87,0,0,0,10.64,2.43l7.29.76c-2.22,5.29-6.86,7.77-12.37,7.77a12.61,12.61,0,0,1-13-13c0-7.56,5.45-13,12.85-13,6.81,0,13,4.43,13,14.8Zm-18.57-4.7h11.07a5.37,5.37,0,0,0-5.46-4.53A5.51,5.51,0,0,0,1063.31,1223.18Z"/><path d="M1085.66,1229.12v-15.66h7v14.37c0,3.4,2.27,4.75,4.75,4.75s4.76-1.35,4.76-4.75v-14.37h7v15.66c0,5.19-4.1,9.72-11.72,9.72S1085.66,1234.31,1085.66,1229.12Z"/><path d="M1139.07,1227.88h-18.42a5.87,5.87,0,0,0,10.64,2.43l7.29.76c-2.21,5.29-6.86,7.77-12.36,7.77a12.62,12.62,0,0,1-13-13c0-7.56,5.46-13,12.86-13,6.8,0,13,4.43,13,14.8Zm-18.58-4.7h11.07a5.36,5.36,0,0,0-5.45-4.53A5.52,5.52,0,0,0,1120.49,1223.18Z"/><path d="M1145.38,1246.46h-6.31v-.81a37.23,37.23,0,0,0,8.2-22.68,34.49,34.49,0,0,0-8.2-21.71v-.87h6.31c5.46,6.75,9.18,14,9.18,22.58S1150.84,1239.82,1145.38,1246.46Z"/><path d="M1159.86,1224.8l17.28-5.5-17.28-5.46v-7.13l24.13,8.59v8l-24.13,8.58Z"/><path d="M1213.75,1219.24c0,13.45-5.24,19.6-13.18,19.6s-13.23-6.15-13.23-19.6c0-13.23,5.24-19.49,13.23-19.49S1213.75,1206,1213.75,1219.24Zm-13.18,12.69c3.73,0,5.51-4.26,5.51-12.69s-1.78-12.64-5.51-12.64-5.51,4.33-5.51,12.64S1196.79,1231.93,1200.57,1231.93Z"/><rect class="cls-1" x="1739.54" y="1160.87" width="1030" height="149"/><path d="M2133,1237.24h-3c-3.57,0-5.19,1.67-5.19,6v11.83h-7v-24.74h6.81v4A6.51,6.51,0,0,1,2131,1230a7.63,7.63,0,0,1,1.95.22Z"/><path d="M2160.87,1244.74h-18.42a5.87,5.87,0,0,0,10.64,2.43l7.29.76c-2.21,5.29-6.86,7.77-12.37,7.77a12.62,12.62,0,0,1-13-13c0-7.56,5.46-13,12.86-13,6.8,0,13,4.42,13,14.79Zm-18.58-4.7h11.07a5.36,5.36,0,0,0-5.45-4.53A5.52,5.52,0,0,0,2142.29,1240Z"/><path d="M2173.88,1220.93v9.39h5.35v5.94h-5.35v11.18c0,1.57,1.24,1.78,2.32,1.78,1.78,0,3.24-.16,3.24-.16v6s-3.4.32-5.45.32c-3.51,0-7.13-.59-7.13-5.56v-13.56H2163v-5.94h3.89v-9.39Z"/><path d="M2183.71,1246v-15.66h7v14.37c0,3.4,2.27,4.75,4.75,4.75s4.75-1.35,4.75-4.75v-14.37h7V1246c0,5.19-4.11,9.72-11.72,9.72S2183.71,1251.17,2183.71,1246Z"/><path d="M2228,1237.24h-3c-3.56,0-5.18,1.67-5.18,6v11.83h-7v-24.74h6.8v4a6.51,6.51,0,0,1,6.43-4.27,7.6,7.6,0,0,1,1.94.22Z"/><path d="M2246.29,1229.68c5.35,0,9.18,3.4,9.18,9.18v16.2h-7v-14.42c0-3.13-2-4.43-4.21-4.43A6.84,6.84,0,0,0,2239,1239v16h-7v-24.74h6.86v1c0,.86-.11,1.94-.11,1.94A9.74,9.74,0,0,1,2246.29,1229.68Z"/><path d="M2280.37,1255.06H2273v-37.8h9.88l12.74,25.16v-25.16h7.4v37.8h-9.12l-13.5-26.25Z"/><path d="M2307.74,1242.69a13.23,13.23,0,1,1,13.23,13A12.87,12.87,0,0,1,2307.74,1242.69Zm7,0c0,3.83,2.54,6.75,6.21,6.75s6.16-2.92,6.16-6.75-2.54-6.75-6.16-6.75S2314.76,1238.8,2314.76,1242.69Z"/><path d="M2353,1229.68c5.34,0,9.18,3.4,9.18,9.18v16.2h-7v-14.42c0-3.13-2-4.43-4.22-4.43a6.86,6.86,0,0,0-5.24,2.81v16h-7v-24.74h6.86v1c0,.86-.11,1.94-.11,1.94A9.76,9.76,0,0,1,2353,1229.68Z"/><path d="M2392.2,1244.74h-18.42a5.87,5.87,0,0,0,10.64,2.43l7.29.76c-2.21,5.29-6.86,7.77-12.36,7.77a12.61,12.61,0,0,1-13-13c0-7.56,5.45-13,12.85-13,6.8,0,13,4.42,13,14.79Zm-18.58-4.7h11.07a5.36,5.36,0,0,0-5.45-4.53A5.52,5.52,0,0,0,2373.62,1240Z"/><rect class="cls-1" x="1739.54" y="1896.15" width="1030" height="149"/><path d="M2028.33,1975.81H2023v14.52h-7.5v-37.8h14.2c8.26,0,13.12,4.92,13.12,11.5a10.62,10.62,0,0,1-7.18,10.37l9.67,15.93h-8.64Zm.43-16.8H2023v10.26h5.73c4.16,0,6.59-1.94,6.59-5.18S2032.92,1959,2028.76,1959Z"/><path d="M2071.69,1980h-18.42a5.87,5.87,0,0,0,10.64,2.43l7.29.76c-2.21,5.29-6.86,7.77-12.36,7.77a12.61,12.61,0,0,1-13-13c0-7.56,5.45-13,12.85-13,6.8,0,13,4.43,13,14.8Zm-18.58-4.7h11.07a5.36,5.36,0,0,0-5.45-4.53A5.52,5.52,0,0,0,2053.11,1975.32Z"/><path d="M2084.7,1956.2v9.4h5.35v5.94h-5.35v11.18c0,1.57,1.24,1.78,2.32,1.78,1.79,0,3.24-.16,3.24-.16v6s-3.4.33-5.45.33c-3.51,0-7.13-.6-7.13-5.56v-13.56h-3.89v-5.94h3.89v-9.4Z"/><path d="M2094.53,1981.26V1965.6h7V1980c0,3.4,2.27,4.75,4.75,4.75s4.75-1.35,4.75-4.75V1965.6h7v15.66c0,5.19-4.11,9.72-11.72,9.72S2094.53,1986.45,2094.53,1981.26Z"/><path d="M2138.86,1972.51h-3c-3.56,0-5.18,1.68-5.18,6v11.82h-7V1965.6h6.8v3.94a6.52,6.52,0,0,1,6.43-4.26,8,8,0,0,1,1.94.21Z"/><path d="M2157.11,1965c5.35,0,9.18,3.4,9.18,9.18v16.2h-7v-14.41c0-3.14-2-4.43-4.21-4.43a6.84,6.84,0,0,0-5.24,2.81v16h-7V1965.6h6.86v1c0,.87-.11,2-.11,2A9.71,9.71,0,0,1,2157.11,1965Z"/><path d="M2188.32,1978c0,3.88,2.54,6.75,6.21,6.75a5.67,5.67,0,0,0,5.46-3.78l6.59,2c-1.62,4.91-6.48,8-12.1,8a13,13,0,1,1,0-26c5.62,0,10.48,3.14,12.1,8l-6.59,2a5.74,5.74,0,0,0-5.46-3.78C2190.86,1971.22,2188.32,1974.08,2188.32,1978Z"/><path d="M2210.36,1981.26V1965.6h7V1980c0,3.4,2.26,4.75,4.75,4.75s4.75-1.35,4.75-4.75V1965.6h7v15.66c0,5.19-4.11,9.72-11.72,9.72S2210.36,1986.45,2210.36,1981.26Z"/><path d="M2254.69,1972.51h-3c-3.56,0-5.18,1.68-5.18,6v11.82h-7V1965.6h6.8v3.94a6.52,6.52,0,0,1,6.43-4.26,8.06,8.06,0,0,1,1.94.21Z"/><path d="M2273.81,1972.51h-3c-3.56,0-5.18,1.68-5.18,6v11.82h-7V1965.6h6.8v3.94a6.53,6.53,0,0,1,6.43-4.26,8.09,8.09,0,0,1,1.95.21Z"/><path d="M2301.72,1980h-18.41a5.87,5.87,0,0,0,10.64,2.43l7.29.76c-2.22,5.29-6.86,7.77-12.37,7.77a12.61,12.61,0,0,1-13-13c0-7.56,5.45-13,12.85-13,6.81,0,13,4.43,13,14.8Zm-18.57-4.7h11.07a5.37,5.37,0,0,0-5.46-4.53A5.51,5.51,0,0,0,2283.15,1975.32Z"/><path d="M2320.19,1965c5.35,0,9.18,3.4,9.18,9.18v16.2h-7v-14.41c0-3.14-2-4.43-4.21-4.43a6.84,6.84,0,0,0-5.24,2.81v16h-7V1965.6h6.86v1c0,.87-.11,2-.11,2A9.71,9.71,0,0,1,2320.19,1965Z"/><path d="M2344,1956.2v9.4h5.35v5.94H2344v11.18c0,1.57,1.25,1.78,2.33,1.78,1.78,0,3.24-.16,3.24-.16v6s-3.41.33-5.46.33c-3.51,0-7.13-.6-7.13-5.56v-13.56h-3.88v-5.94H2337v-9.4Z"/><path d="M2351.19,1993.84h27v5.94h-27Z"/><path d="M2395.52,1965c5.35,0,9.18,3.4,9.18,9.18v16.2h-7v-14.41c0-3.14-2-4.43-4.21-4.43a6.84,6.84,0,0,0-5.24,2.81v16h-7V1965.6h6.86v1c0,.87-.11,2-.11,2A9.71,9.71,0,0,1,2395.52,1965Z"/><path d="M2408.91,1978a13.23,13.23,0,1,1,13.23,13A12.88,12.88,0,0,1,2408.91,1978Zm7,0c0,3.83,2.54,6.75,6.21,6.75s6.16-2.92,6.16-6.75-2.54-6.75-6.16-6.75S2415.93,1974.08,2415.93,1978Z"/><path d="M2458.05,1987.2c-1.24,2-4.16,3.78-7.72,3.78-6.81,0-12-5.45-12-13s5.13-13,11.93-13c3.78,0,6.65,1.73,7.89,3.84,0-.81-.11-2.86-.11-4.7v-11.56h7v37.8h-7Zm-12.47-9.23c0,3.78,2.59,6.8,6.31,6.8s6.32-3,6.32-6.8-2.59-6.75-6.32-6.75S2445.58,1974.13,2445.58,1978Z"/><path d="M2495.36,1980H2477a5.87,5.87,0,0,0,10.64,2.43l7.29.76c-2.22,5.29-6.86,7.77-12.37,7.77a12.61,12.61,0,0,1-13-13c0-7.56,5.46-13,12.85-13,6.81,0,13,4.43,13,14.8Zm-18.57-4.7h11.07a5.37,5.37,0,0,0-5.46-4.53A5.51,5.51,0,0,0,2476.79,1975.32Z"/><rect class="cls-1" x="405.03" y="1515.94" width="1030" height="149"/><path d="M509.9,1593.76c0,3.89,2.53,6.75,6.21,6.75a5.67,5.67,0,0,0,5.45-3.78l6.59,2c-1.62,4.91-6.48,8-12.1,8a13,13,0,1,1,0-26c5.62,0,10.48,3.14,12.1,8l-6.59,2a5.73,5.73,0,0,0-5.45-3.78C512.43,1587,509.9,1589.87,509.9,1593.76Z"/><path d="M531.93,1597.05v-15.66h7v14.37c0,3.4,2.26,4.75,4.75,4.75s4.75-1.35,4.75-4.75v-14.37h7v15.66c0,5.19-4.11,9.72-11.72,9.72S531.93,1602.24,531.93,1597.05Z"/><path d="M576.26,1588.3h-3c-3.56,0-5.18,1.68-5.18,6v11.82h-7v-24.73h6.8v3.94a6.52,6.52,0,0,1,6.43-4.26,8.06,8.06,0,0,1,1.94.21Z"/><path d="M595.38,1588.3h-3c-3.57,0-5.19,1.68-5.19,6v11.82h-7v-24.73H587v3.94a6.51,6.51,0,0,1,6.42-4.26,8.09,8.09,0,0,1,2,.21Z"/><path d="M623.29,1595.81H604.88a5.87,5.87,0,0,0,10.64,2.43l7.29.76c-2.22,5.29-6.86,7.77-12.37,7.77a12.61,12.61,0,0,1-13-13c0-7.56,5.45-13,12.85-13,6.81,0,13,4.43,13,14.8Zm-18.57-4.7h11.07a5.37,5.37,0,0,0-5.46-4.53A5.51,5.51,0,0,0,604.72,1591.11Z"/><path d="M641.76,1580.74c5.35,0,9.18,3.41,9.18,9.18v16.2h-7v-14.41c0-3.14-2-4.43-4.21-4.43a6.84,6.84,0,0,0-5.24,2.81v16h-7v-24.73h6.86v1c0,.87-.11,2-.11,2A9.75,9.75,0,0,1,641.76,1580.74Z"/><path d="M665.57,1572v9.39h5.35v5.94h-5.35v11.18c0,1.57,1.25,1.78,2.33,1.78,1.78,0,3.24-.16,3.24-.16v6s-3.41.33-5.46.33c-3.51,0-7.13-.6-7.13-5.56v-13.56h-3.88v-5.94h3.88V1572Z"/><path d="M672.76,1609.63h27v5.94h-27Z"/><path d="M717.09,1580.74c5.35,0,9.18,3.41,9.18,9.18v16.2h-7v-14.41c0-3.14-2-4.43-4.21-4.43a6.84,6.84,0,0,0-5.24,2.81v16h-7v-24.73h6.86v1c0,.87-.11,2-.11,2A9.75,9.75,0,0,1,717.09,1580.74Z"/><path d="M730.48,1593.76a13.23,13.23,0,1,1,13.23,13A12.88,12.88,0,0,1,730.48,1593.76Zm7,0c0,3.83,2.54,6.75,6.21,6.75s6.16-2.92,6.16-6.75-2.54-6.75-6.16-6.75S737.5,1589.87,737.5,1593.76Z"/><path d="M779.62,1603c-1.24,2-4.16,3.78-7.72,3.78-6.8,0-12-5.45-12-13s5.13-13,11.94-13c3.77,0,6.64,1.73,7.88,3.84,0-.81-.11-2.86-.11-4.7v-11.56h7v37.8h-7Zm-12.47-9.23c0,3.78,2.59,6.8,6.32,6.8s6.31-3,6.31-6.8-2.59-6.75-6.31-6.75S767.15,1589.92,767.15,1593.76Z"/><path d="M816.93,1595.81H798.52a5.87,5.87,0,0,0,10.64,2.43l7.29.76c-2.22,5.29-6.86,7.77-12.37,7.77a12.61,12.61,0,0,1-13-13c0-7.56,5.46-13,12.85-13,6.81,0,13,4.43,13,14.8Zm-18.57-4.7h11.07a5.37,5.37,0,0,0-5.46-4.53A5.51,5.51,0,0,0,798.36,1591.11Z"/><path d="M844.15,1584.69H820v-6.43h24.14Zm0,10.8H820v-6.43h24.14Z"/><path d="M850.85,1574.37c0-4.86,3.24-6.53,7-6.53,1.89,0,5.13.32,5.13.32v6.43s-2.16-.27-2.92-.27c-1.35,0-2.21.32-2.21,2v5h4.75v5.94h-4.75v18.79h-7v-18.79H847v-5.94h3.89Z"/><path d="M881.73,1588.3h-3c-3.56,0-5.18,1.68-5.18,6v11.82h-7v-24.73h6.8v3.94a6.53,6.53,0,0,1,6.43-4.26,8,8,0,0,1,1.94.21Z"/><path d="M883.84,1593.76a13.23,13.23,0,1,1,13.23,13A12.87,12.87,0,0,1,883.84,1593.76Zm7,0c0,3.83,2.54,6.75,6.21,6.75s6.15-2.92,6.15-6.75-2.53-6.75-6.15-6.75S890.86,1589.87,890.86,1593.76Z"/><path d="M929.09,1580.74c5.35,0,9.18,3.41,9.18,9.18v16.2h-7v-14.41c0-3.14-2-4.43-4.21-4.43a6.84,6.84,0,0,0-5.24,2.81v16h-7v-24.73h6.86v1c0,.87-.11,2-.11,2A9.75,9.75,0,0,1,929.09,1580.74Z"/><path d="M952.9,1572v9.39h5.35v5.94H952.9v11.18c0,1.57,1.25,1.78,2.33,1.78,1.78,0,3.24-.16,3.24-.16v6s-3.41.33-5.46.33c-3.51,0-7.13-.6-7.13-5.56v-13.56H942v-5.94h3.88V1572Z"/><path d="M971.59,1606.12h-7v-18.79h-3.46v-5.94h10.48Zm-3.84-37.8a4.54,4.54,0,0,1,4.54,4.54,4.51,4.51,0,0,1-9,0A4.52,4.52,0,0,1,967.75,1568.32Z"/><path d="M1001.88,1595.81H983.47a5.87,5.87,0,0,0,10.64,2.43l7.29.76c-2.22,5.29-6.86,7.77-12.37,7.77a12.61,12.61,0,0,1-13-13c0-7.56,5.45-13,12.85-13,6.81,0,13,4.43,13,14.8Zm-18.57-4.7h11.07a5.37,5.37,0,0,0-5.46-4.53A5.51,5.51,0,0,0,983.31,1591.11Z"/><path d="M1021.21,1588.3h-3c-3.56,0-5.18,1.68-5.18,6v11.82h-7v-24.73h6.8v3.94a6.53,6.53,0,0,1,6.43-4.26,8,8,0,0,1,1.94.21Z"/><path d="M1022.13,1609.63h27v5.94h-27Z"/><path d="M1070.35,1603c-1.24,2.11-4.16,3.78-7.72,3.78-6.8,0-12-5.45-12-13s5.13-13,11.94-13c3.78,0,6.64,1.73,7.88,3.84,0-.27-.11-.76-.11-2v-1.14h7v34.18h-7Zm-12.47-9.23c0,3.78,2.59,6.8,6.32,6.8s6.31-3,6.31-6.8-2.59-6.75-6.31-6.75S1057.88,1589.92,1057.88,1593.76Z"/><path d="M1083,1597.05v-15.66h7v14.37c0,3.4,2.27,4.75,4.75,4.75s4.76-1.35,4.76-4.75v-14.37h7v15.66c0,5.19-4.1,9.72-11.72,9.72S1083,1602.24,1083,1597.05Z"/><path d="M1136.45,1595.81H1118a5.87,5.87,0,0,0,10.64,2.43l7.29.76c-2.21,5.29-6.86,7.77-12.36,7.77a12.61,12.61,0,0,1-13-13c0-7.56,5.45-13,12.85-13,6.8,0,13,4.43,13,14.8Zm-18.58-4.7h11.07a5.36,5.36,0,0,0-5.45-4.53A5.52,5.52,0,0,0,1117.87,1591.11Z"/><path d="M1140.23,1597.05v-15.66h7v14.37c0,3.4,2.26,4.75,4.75,4.75s4.75-1.35,4.75-4.75v-14.37h7v15.66c0,5.19-4.11,9.72-11.72,9.72S1140.23,1602.24,1140.23,1597.05Z"/><path d="M1193.63,1595.81h-18.41a5.87,5.87,0,0,0,10.64,2.43l7.29.76c-2.22,5.29-6.86,7.77-12.37,7.77a12.61,12.61,0,0,1-13-13c0-7.56,5.45-13,12.85-13,6.81,0,13,4.43,13,14.8Zm-18.57-4.7h11.07a5.37,5.37,0,0,0-5.46-4.53A5.51,5.51,0,0,0,1175.06,1591.11Z"/><path d="M1202,1597.38a4.7,4.7,0,1,1-4.7,4.69A4.7,4.7,0,0,1,1202,1597.38Z"/><path d="M1219.28,1615.57h-7v-34.18h7v1.19c0,1.19-.11,1.73-.11,2,1.19-2.11,4.11-3.84,7.83-3.84,6.81,0,12,5.46,12,13s-5.24,13-12,13c-3.51,0-6.43-1.67-7.67-3.78Zm-.16-21.81c0,3.78,2.59,6.8,6.32,6.8s6.32-3,6.32-6.8-2.6-6.75-6.32-6.75S1219.12,1589.92,1219.12,1593.76Z"/><path d="M1242,1593.76a13.23,13.23,0,1,1,13.23,13A12.88,12.88,0,0,1,1242,1593.76Zm7,0c0,3.83,2.54,6.75,6.21,6.75s6.16-2.92,6.16-6.75-2.54-6.75-6.16-6.75S1249,1589.87,1249,1593.76Z"/><path d="M1279.92,1615.57h-7v-34.18h7v1.19c0,1.19-.11,1.73-.11,2,1.19-2.11,4.11-3.84,7.83-3.84,6.81,0,12,5.46,12,13s-5.24,13-12,13c-3.51,0-6.43-1.67-7.67-3.78Zm-.16-21.81c0,3.78,2.59,6.8,6.32,6.8s6.32-3,6.32-6.8-2.6-6.75-6.32-6.75S1279.76,1589.92,1279.76,1593.76Z"/><path d="M1312.16,1568.32h6.32v.87a34.47,34.47,0,0,0-8.21,21.71,37.27,37.27,0,0,0,8.21,22.68v.81h-6.32c-5.45-6.65-9.18-14.91-9.18-23.49S1306.71,1575.07,1312.16,1568.32Z"/><path d="M1326.63,1614.39h-6.32v-.81a37.2,37.2,0,0,0,8.21-22.68,34.42,34.42,0,0,0-8.21-21.71v-.87h6.32c5.46,6.75,9.18,14,9.18,22.58S1332.09,1607.74,1326.63,1614.39Z"/><rect class="cls-1" x="405.03" y="2280.32" width="1030" height="149"/><path d="M429,2338.53c0-4.68,3.12-6.29,6.76-6.29,1.82,0,4.94.31,4.94.31v6.19s-2.08-.26-2.81-.26c-1.3,0-2.13.31-2.13,2v4.84h4.57V2351h-4.57v18.1H429V2351H425.2v-5.72H429Z"/><path d="M458.69,2352h-2.86c-3.43,0-5,1.61-5,5.77v11.39h-6.76v-23.82h6.55v3.8a6.28,6.28,0,0,1,6.19-4.11,7.45,7.45,0,0,1,1.87.21Z"/><path d="M460.72,2357.2a12.74,12.74,0,1,1,12.74,12.53A12.39,12.39,0,0,1,460.72,2357.2Zm6.76,0c0,3.69,2.44,6.5,6,6.5s5.93-2.81,5.93-6.5-2.45-6.5-5.93-6.5S467.48,2353.45,467.48,2357.2Z"/><path d="M504.3,2344.67c5.14,0,8.84,3.27,8.84,8.84v15.6h-6.76v-13.89c0-3-1.93-4.26-4.06-4.26a6.59,6.59,0,0,0-5,2.7v15.45h-6.76v-23.82h6.6v.94c0,.83-.1,1.87-.1,1.87A9.35,9.35,0,0,1,504.3,2344.67Z"/><path d="M527.23,2336.24v9.05h5.15V2351h-5.15v10.76c0,1.51,1.19,1.72,2.23,1.72,1.72,0,3.12-.15,3.12-.15v5.77s-3.27.31-5.25.31c-3.38,0-6.86-.57-6.86-5.36v-13h-3.75v-5.72h3.75v-9.05Z"/><path d="M545.22,2369.11h-6.76V2351h-3.33v-5.72h10.09Zm-3.69-36.4a4.35,4.35,0,0,1,4.36,4.36,4.34,4.34,0,0,1-8.68,0A4.34,4.34,0,0,1,541.53,2332.71Z"/><path d="M574.39,2359.18H556.66a5.65,5.65,0,0,0,10.24,2.34l7,.72c-2.13,5.1-6.6,7.49-11.9,7.49a12.15,12.15,0,0,1-12.49-12.53c0-7.28,5.26-12.53,12.38-12.53,6.55,0,12.48,4.26,12.48,14.25Zm-17.89-4.53h10.66a5.16,5.16,0,0,0-5.25-4.37A5.31,5.31,0,0,0,556.5,2354.65Z"/><path d="M593,2352h-2.86c-3.44,0-5,1.61-5,5.77v11.39h-6.76v-23.82H585v3.8a6.26,6.26,0,0,1,6.18-4.11,7.53,7.53,0,0,1,1.88.21Z"/><path d="M593.89,2372.49h26v5.72h-26Z"/><path d="M640.33,2366.09c-1.2,2-4,3.64-7.44,3.64-6.55,0-11.55-5.25-11.55-12.53s4.94-12.53,11.5-12.53c3.64,0,6.39,1.66,7.59,3.69,0-.26-.1-.73-.1-2v-1.09h6.76v32.92h-6.76Zm-12-8.89c0,3.64,2.5,6.55,6.09,6.55s6.08-2.91,6.08-6.55-2.49-6.5-6.08-6.5S628.31,2353.51,628.31,2357.2Z"/><path d="M652.54,2360.37v-15.08h6.77v13.83a4.22,4.22,0,0,0,4.57,4.58c2.45,0,4.58-1.3,4.58-4.58v-13.83h6.71v15.08c0,5-4,9.36-11.29,9.36S652.54,2365.36,652.54,2360.37Z"/><path d="M704,2359.18H686.24a5.65,5.65,0,0,0,10.24,2.34l7,.72c-2.13,5.1-6.6,7.49-11.9,7.49a12.14,12.14,0,0,1-12.48-12.53c0-7.28,5.25-12.53,12.37-12.53,6.55,0,12.48,4.26,12.48,14.25Zm-17.89-4.53h10.66a5.16,5.16,0,0,0-5.25-4.37A5.31,5.31,0,0,0,686.08,2354.65Z"/><path d="M707.61,2360.37v-15.08h6.76v13.83a4.23,4.23,0,0,0,4.58,4.58c2.44,0,4.57-1.3,4.57-4.58v-13.83h6.71v15.08c0,5-4,9.36-11.28,9.36S707.61,2365.36,707.61,2360.37Z"/><path d="M759,2359.18H741.31a5.65,5.65,0,0,0,10.24,2.34l7,.72c-2.13,5.1-6.6,7.49-11.91,7.49a12.15,12.15,0,0,1-12.48-12.53c0-7.28,5.25-12.53,12.38-12.53,6.55,0,12.48,4.26,12.48,14.25Zm-17.89-4.53h10.66a5.16,5.16,0,0,0-5.25-4.37A5.31,5.31,0,0,0,741.15,2354.65Z"/><path d="M767.1,2360.68a4.53,4.53,0,1,1-4.53,4.53A4.53,4.53,0,0,1,767.1,2360.68Z"/><path d="M783.74,2378.21H777v-32.92h6.76v1.15c0,1.14-.11,1.66-.11,1.92,1.15-2,4-3.69,7.54-3.69,6.56,0,11.55,5.25,11.55,12.53s-5.05,12.53-11.6,12.53c-3.38,0-6.19-1.61-7.38-3.64Zm-.16-21c0,3.64,2.5,6.55,6.09,6.55s6.08-2.91,6.08-6.55-2.5-6.5-6.08-6.5S783.58,2353.51,783.58,2357.2Z"/><path d="M806.72,2360.37v-15.08h6.76v13.83a4.23,4.23,0,0,0,4.58,4.58c2.44,0,4.57-1.3,4.57-4.58v-13.83h6.71v15.08c0,5-4,9.36-11.28,9.36S806.72,2365.36,806.72,2360.37Z"/><path d="M848.84,2352.57a8.68,8.68,0,0,0-5.88-2.44c-1.76,0-2.39.88-2.39,1.61s.52,1.4,1.77,1.82l3.95,1.25c4.89,1.61,6.56,4.26,6.56,7.38,0,3.49-3,7.54-9.47,7.54a15.37,15.37,0,0,1-10.5-3.74l3.58-4.68a11.82,11.82,0,0,0,7,3c1.62,0,2.6-.83,2.6-1.77,0-1.19-.78-1.71-2.7-2.29l-4.06-1.19c-3.84-1.25-5.51-3.85-5.51-7,0-3.9,3.54-7.38,9.26-7.38a14.19,14.19,0,0,1,9.62,3.53Z"/><path d="M870.94,2344.67c5.15,0,8.84,3.27,8.84,8.84v15.6H873v-13.89c0-3-1.92-4.26-4.06-4.26a6.6,6.6,0,0,0-5,2.7v15.45h-6.76v-36.4h6.66v13.52c0,.83-.11,1.87-.11,1.87A9.34,9.34,0,0,1,870.94,2344.67Z"/><path d="M893,2332.71h6.08v.83a33.23,33.23,0,0,0-7.9,20.9,35.85,35.85,0,0,0,7.9,21.84v.78H893c-5.25-6.39-8.84-14.35-8.84-22.62S887.79,2339.21,893,2332.71Z"/><path d="M906,2357.2c0,3.74,2.44,6.5,6,6.5a5.45,5.45,0,0,0,5.25-3.64l6.35,2c-1.56,4.74-6.24,7.7-11.65,7.7a12.53,12.53,0,1,1,0-25.06c5.41,0,10.09,3,11.65,7.75l-6.35,1.92a5.52,5.52,0,0,0-5.25-3.64C908.48,2350.7,906,2353.45,906,2357.2Z"/><path d="M927.26,2360.37v-15.08H934v13.83a4.22,4.22,0,0,0,4.57,4.58c2.45,0,4.58-1.3,4.58-4.58v-13.83h6.71v15.08c0,5-4,9.36-11.29,9.36S927.26,2365.36,927.26,2360.37Z"/><path d="M970,2352h-2.86c-3.43,0-5,1.61-5,5.77v11.39h-6.77v-23.82h6.56v3.8a6.26,6.26,0,0,1,6.19-4.11,7.5,7.5,0,0,1,1.87.21Z"/><path d="M988.35,2352h-2.86c-3.43,0-5,1.61-5,5.77v11.39h-6.76v-23.82h6.55v3.8a6.28,6.28,0,0,1,6.19-4.11,7.4,7.4,0,0,1,1.87.21Z"/><path d="M1015.24,2359.18H997.51a5.65,5.65,0,0,0,10.24,2.34l7,.72c-2.13,5.1-6.6,7.49-11.91,7.49a12.15,12.15,0,0,1-12.48-12.53c0-7.28,5.25-12.53,12.38-12.53,6.55,0,12.48,4.26,12.48,14.25Zm-17.89-4.53H1008a5.16,5.16,0,0,0-5.25-4.37A5.31,5.31,0,0,0,997.35,2354.65Z"/><path d="M1033,2344.67c5.15,0,8.84,3.27,8.84,8.84v15.6h-6.76v-13.89c0-3-1.92-4.26-4-4.26a6.6,6.6,0,0,0-5,2.7v15.45h-6.76v-23.82h6.61v.94c0,.83-.11,1.87-.11,1.87A9.36,9.36,0,0,1,1033,2344.67Z"/><path d="M1056,2336.24v9.05h5.15V2351H1056v10.76c0,1.51,1.2,1.72,2.24,1.72,1.71,0,3.12-.15,3.12-.15v5.77s-3.28.31-5.25.31c-3.38,0-6.87-.57-6.87-5.36v-13h-3.74v-5.72h3.74v-9.05Z"/><path d="M1062.87,2372.49h26v5.72h-26Z"/><path d="M1105.56,2344.67c5.15,0,8.84,3.27,8.84,8.84v15.6h-6.76v-13.89c0-3-1.92-4.26-4.05-4.26a6.6,6.6,0,0,0-5,2.7v15.45h-6.76v-23.82h6.61v.94c0,.83-.11,1.87-.11,1.87A9.36,9.36,0,0,1,1105.56,2344.67Z"/><path d="M1118.46,2357.2a12.74,12.74,0,1,1,12.74,12.53A12.39,12.39,0,0,1,1118.46,2357.2Zm6.76,0c0,3.69,2.44,6.5,6,6.5s5.92-2.81,5.92-6.5-2.44-6.5-5.92-6.5S1125.22,2353.45,1125.22,2357.2Z"/><path d="M1165.78,2366.09a8.73,8.73,0,0,1-7.44,3.64c-6.55,0-11.54-5.25-11.54-12.53s4.94-12.53,11.49-12.53c3.64,0,6.39,1.66,7.59,3.69,0-.78-.1-2.76-.1-4.52v-11.13h6.76v36.4h-6.76Zm-12-8.89c0,3.64,2.5,6.55,6.09,6.55s6.08-2.91,6.08-6.55-2.49-6.5-6.08-6.5S1153.76,2353.51,1153.76,2357.2Z"/><path d="M1201.71,2359.18H1184a5.65,5.65,0,0,0,10.24,2.34l7,.72c-2.13,5.1-6.6,7.49-11.91,7.49a12.15,12.15,0,0,1-12.48-12.53c0-7.28,5.25-12.53,12.38-12.53,6.55,0,12.48,4.26,12.48,14.25Zm-17.89-4.53h10.66a5.16,5.16,0,0,0-5.25-4.37A5.31,5.31,0,0,0,1183.82,2354.65Z"/><path d="M1209.77,2360.68a4.53,4.53,0,1,1-4.53,4.53A4.53,4.53,0,0,1,1209.77,2360.68Z"/><path d="M1224.9,2357.2c0,3.74,2.44,6.5,6,6.5a5.46,5.46,0,0,0,5.25-3.64l6.34,2c-1.56,4.74-6.24,7.7-11.64,7.7a12.53,12.53,0,1,1,0-25.06c5.4,0,10.08,3,11.64,7.75l-6.34,1.92a5.53,5.53,0,0,0-5.25-3.64C1227.34,2350.7,1224.9,2353.45,1224.9,2357.2Z"/><path d="M1260.26,2344.67c5.15,0,8.84,3.27,8.84,8.84v15.6h-6.76v-13.89c0-3-1.93-4.26-4.06-4.26a6.6,6.6,0,0,0-5,2.7v15.45h-6.76v-36.4h6.65v13.52c0,.83-.1,1.87-.1,1.87A9.32,9.32,0,0,1,1260.26,2344.67Z"/><path d="M1282.83,2369.11h-6.76V2351h-3.33v-5.72h10.09Zm-3.7-36.4a4.35,4.35,0,0,1,4.37,4.36,4.34,4.34,0,0,1-8.68,0A4.34,4.34,0,0,1,1279.13,2332.71Z"/><path d="M1295.36,2369.11h-6.71v-36.4h6.71Z"/><path d="M1318.71,2366.09a8.73,8.73,0,0,1-7.44,3.64c-6.55,0-11.55-5.25-11.55-12.53s5-12.53,11.5-12.53c3.64,0,6.39,1.66,7.59,3.69,0-.78-.1-2.76-.1-4.52v-11.13h6.76v36.4h-6.76Zm-12-8.89c0,3.64,2.5,6.55,6.09,6.55s6.08-2.91,6.08-6.55-2.49-6.5-6.08-6.5S1306.69,2353.51,1306.69,2357.2Z"/><path d="M1345.9,2352H1343c-3.43,0-5,1.61-5,5.77v11.39h-6.76v-23.82h6.55v3.8A6.27,6.27,0,0,1,1344,2345a7.45,7.45,0,0,1,1.87.21Z"/><path d="M1372.79,2359.18h-17.74a5.66,5.66,0,0,0,10.25,2.34l7,.72c-2.14,5.1-6.61,7.49-11.91,7.49a12.14,12.14,0,0,1-12.48-12.53c0-7.28,5.25-12.53,12.38-12.53,6.55,0,12.48,4.26,12.48,14.25Zm-17.89-4.53h10.66a5.18,5.18,0,0,0-5.25-4.37A5.31,5.31,0,0,0,1354.9,2354.65Z"/><path d="M1390.57,2344.67c5.15,0,8.84,3.27,8.84,8.84v15.6h-6.76v-13.89c0-3-1.93-4.26-4.06-4.26a6.6,6.6,0,0,0-5,2.7v15.45h-6.76v-23.82h6.6v.94c0,.83-.1,1.87-.1,1.87A9.35,9.35,0,0,1,1390.57,2344.67Z"/><path d="M1407.68,2377.06h-6.09v-.78a35.79,35.79,0,0,0,7.91-21.84,33.18,33.18,0,0,0-7.91-20.9v-.83h6.09c5.25,6.5,8.84,13.47,8.84,21.73S1412.93,2370.67,1407.68,2377.06Z"/><ellipse class="cls-3" cx="922.59" cy="243.38" rx="251.93" ry="97"/><path d="M804.28,233.81c-2.32-2.27-5.34-3.89-8-3.89-2.48,0-4.75,1.3-4.75,3.57,0,1.73,1.08,3.08,4.1,4.48l3.13,1.46c6,2.81,9.62,5.94,9.62,11.61s-4.81,11.18-13.13,11.18a18.64,18.64,0,0,1-13.55-5.67l4.16-5.62c2.81,2.86,6.37,4.48,9.23,4.48,3.24,0,5.24-1.78,5.24-4.1,0-2.59-2.32-4.05-5.94-5.73l-2.65-1.24c-5.07-2.37-8.26-5.83-8.26-10.58,0-6.64,5.94-10.64,12.64-10.64,4.37,0,8.85,2.16,12.47,5.29Z"/><path d="M821.67,227.44v9.4H827v5.94h-5.35V254c0,1.57,1.24,1.79,2.32,1.79a31.29,31.29,0,0,0,3.24-.17v6s-3.4.32-5.45.32c-3.51,0-7.13-.59-7.13-5.56V242.78h-3.89v-5.94h3.89v-9.4Z"/><path d="M845.59,245.1c0-1.78-1.4-2.92-4.1-2.92A16.75,16.75,0,0,0,834,244.5l-2.76-5.29a21.19,21.19,0,0,1,10.59-3c5.61,0,10.74,2.59,10.74,9.12v16.26h-7v-2.32c-1.29,1.94-4.1,3-6.91,3-5.24,0-8.64-3.73-8.64-7.78,0-4.7,3.46-7.61,9-7.61h4.86c1.19,0,1.73-.54,1.73-1.46Zm0,7.61v-1.78a3.06,3.06,0,0,1-2.16.54h-2.64c-2.22,0-3.51,1-3.51,2.7s1.35,2.92,3.51,2.92C843.32,257.09,845.59,255.79,845.59,252.71Z"/><path d="M873.56,243.75h-3c-3.56,0-5.18,1.67-5.18,6v11.83h-7V236.84h6.8v3.94a6.52,6.52,0,0,1,6.43-4.27,8,8,0,0,1,1.94.22Z"/><path d="M886.36,227.44v9.4h5.35v5.94h-5.35V254c0,1.57,1.24,1.79,2.32,1.79a31,31,0,0,0,3.24-.17v6s-3.4.32-5.45.32c-3.51,0-7.13-.59-7.13-5.56V242.78h-3.89v-5.94h3.89v-9.4Z"/><path d="M927.72,233.81c-2.32-2.27-5.34-3.89-8-3.89-2.48,0-4.75,1.3-4.75,3.57,0,1.73,1.08,3.08,4.1,4.48l3.14,1.46c6,2.81,9.61,5.94,9.61,11.61s-4.81,11.18-13.12,11.18a18.66,18.66,0,0,1-13.56-5.67l4.16-5.62c2.81,2.86,6.37,4.48,9.23,4.48,3.25,0,5.24-1.78,5.24-4.1,0-2.59-2.32-4.05-5.94-5.73l-2.64-1.24c-5.08-2.37-8.27-5.83-8.27-10.58,0-6.64,5.94-10.64,12.64-10.64,4.38,0,8.86,2.16,12.48,5.29Z"/><path d="M960.66,251.25H942.25a5.88,5.88,0,0,0,10.64,2.44l7.29.75c-2.22,5.29-6.86,7.78-12.37,7.78a12.62,12.62,0,0,1-13-13c0-7.56,5.46-13,12.85-13,6.81,0,13,4.43,13,14.79Zm-18.57-4.69h11.07A5.37,5.37,0,0,0,947.7,242,5.51,5.51,0,0,0,942.09,246.56Z"/><path d="M978.54,245.1c0-1.78-1.41-2.92-4.11-2.92A16.83,16.83,0,0,0,967,244.5l-2.75-5.29a21.18,21.18,0,0,1,10.58-3c5.62,0,10.75,2.59,10.75,9.12v16.26h-7v-2.32c-1.3,1.94-4.11,3-6.91,3-5.24,0-8.64-3.73-8.64-7.78,0-4.7,3.45-7.61,9-7.61h4.86c1.19,0,1.73-.54,1.73-1.46Zm0,7.61v-1.78a3.06,3.06,0,0,1-2.16.54h-2.65c-2.21,0-3.51,1-3.51,2.7s1.35,2.92,3.51,2.92C976.27,257.09,978.54,255.79,978.54,252.71Z"/><path d="M1006.51,243.75h-3c-3.56,0-5.18,1.67-5.18,6v11.83h-7V236.84h6.8v3.94a6.51,6.51,0,0,1,6.43-4.27,8.08,8.08,0,0,1,1.94.22Z"/><path d="M1015.64,249.2c0,3.89,2.53,6.75,6.21,6.75a5.67,5.67,0,0,0,5.45-3.78l6.59,2.06c-1.62,4.91-6.48,8-12.1,8a13,13,0,1,1,0-26c5.62,0,10.48,3.13,12.1,8l-6.59,2a5.73,5.73,0,0,0-5.45-3.78C1018.17,242.45,1015.64,245.31,1015.64,249.2Z"/><path d="M1052.35,236.19c5.35,0,9.19,3.4,9.19,9.18v16.2h-7V247.15c0-3.13-2-4.43-4.21-4.43a6.87,6.87,0,0,0-5.24,2.81v16h-7v-37.8H1045v14c0,.86-.11,1.94-.11,1.94A9.71,9.71,0,0,1,1052.35,236.19Z"/><ellipse class="cls-3" cx="2255.94" cy="1607.22" rx="251.93" ry="97"/><path d="M2155.66,1594.08H2135v8.86h12v6.42h-12V1619h20.62v6.42h-28.13v-37.8h28.13Z"/><path d="M2174.35,1600c5.34,0,9.18,3.41,9.18,9.18v16.2h-7V1611c0-3.14-2-4.43-4.21-4.43a6.85,6.85,0,0,0-5.24,2.8v16h-7v-24.73h6.86v1c0,.87-.11,1.95-.11,1.95A9.75,9.75,0,0,1,2174.35,1600Z"/><path d="M2207.5,1622.27a9,9,0,0,1-7.72,3.78c-6.8,0-12-5.45-12-13s5.13-13,11.94-13c3.78,0,6.64,1.73,7.88,3.84,0-.81-.11-2.86-.11-4.7V1587.6h7v37.8h-7ZM2195,1613c0,3.78,2.59,6.8,6.32,6.8s6.32-3,6.32-6.8-2.6-6.75-6.32-6.75S2195,1609.2,2195,1613Z"/><path d="M2251.73,1597.65c-2.32-2.27-5.35-3.89-8-3.89-2.49,0-4.76,1.29-4.76,3.56,0,1.73,1.08,3.08,4.11,4.48l3.13,1.46c6,2.81,9.61,5.94,9.61,11.61s-4.8,11.18-13.12,11.18a18.6,18.6,0,0,1-13.55-5.67l4.15-5.61c2.81,2.86,6.38,4.48,9.24,4.48,3.24,0,5.24-1.79,5.24-4.11,0-2.59-2.33-4.05-5.94-5.72l-2.65-1.24c-5.08-2.38-8.26-5.83-8.26-10.59,0-6.64,5.94-10.64,12.63-10.64,4.38,0,8.86,2.16,12.48,5.3Z"/><path d="M2284.67,1615.09h-18.42a5.87,5.87,0,0,0,10.64,2.43l7.29.75c-2.21,5.3-6.86,7.78-12.36,7.78a12.61,12.61,0,0,1-13-13c0-7.56,5.45-13,12.85-13,6.8,0,13,4.43,13,14.8Zm-18.58-4.7h11.07a5.37,5.37,0,0,0-5.45-4.54A5.53,5.53,0,0,0,2266.09,1610.39Z"/><path d="M2302.54,1608.93c0-1.78-1.4-2.91-4.1-2.91a16.75,16.75,0,0,0-7.45,2.32l-2.76-5.29a21.14,21.14,0,0,1,10.59-3c5.61,0,10.74,2.59,10.74,9.13v16.25h-7v-2.32c-1.29,1.94-4.1,3-6.91,3-5.24,0-8.64-3.72-8.64-7.78,0-4.69,3.46-7.61,9-7.61h4.86c1.19,0,1.73-.54,1.73-1.46Zm0,7.62v-1.78a3.06,3.06,0,0,1-2.16.53h-2.64c-2.22,0-3.51,1-3.51,2.71s1.35,2.91,3.51,2.91C2300.27,1620.92,2302.54,1619.62,2302.54,1616.55Z"/><path d="M2330.51,1607.58h-3c-3.56,0-5.18,1.68-5.18,6v11.82h-7v-24.73h6.8v3.94a6.53,6.53,0,0,1,6.43-4.26,8,8,0,0,1,1.94.21Z"/><path d="M2339.64,1613c0,3.89,2.54,6.75,6.21,6.75a5.66,5.66,0,0,0,5.45-3.78l6.59,2c-1.62,4.91-6.48,8-12.09,8a13,13,0,1,1,0-26c5.61,0,10.47,3.14,12.09,8l-6.59,2a5.72,5.72,0,0,0-5.45-3.78C2342.18,1606.29,2339.64,1609.15,2339.64,1613Z"/><path d="M2376.36,1600c5.34,0,9.18,3.41,9.18,9.18v16.2h-7V1611c0-3.14-2-4.43-4.21-4.43a6.85,6.85,0,0,0-5.24,2.8v16h-7v-37.8H2369v14c0,.87-.11,1.95-.11,1.95A9.72,9.72,0,0,1,2376.36,1600Z"/><polyline class="cls-4" points="947.04 423.63 920.04 450.63 893.04 423.63"/><line class="cls-4" x1="919.89" y1="446.78" x2="919.89" y2="369.2"/><polyline class="cls-4" points="947.04 708.93 920.04 735.93 893.04 708.93"/><line class="cls-4" x1="919.89" y1="732.08" x2="919.89" y2="654.5"/><polyline class="cls-4" points="947.04 1007.06 920.04 1034.06 893.04 1007.06"/><line class="cls-4" x1="919.89" y1="1030.21" x2="919.89" y2="952.63"/><polyline class="cls-4" points="947.04 1464.66 920.04 1491.66 893.04 1464.66"/><line class="cls-4" x1="919.89" y1="1487.81" x2="919.89" y2="1410.23"/><polygon class="cls-2" points="919.98 2124.34 405.03 1977.39 920 1810.73 1435.03 1977.39 919.98 2124.34"/><path d="M548.45,1971.5c0,3.89,2.54,6.75,6.21,6.75a5.66,5.66,0,0,0,5.45-3.78l6.59,2c-1.62,4.92-6.48,8-12.09,8a13,13,0,1,1,0-26c5.61,0,10.47,3.13,12.09,8l-6.59,2a5.72,5.72,0,0,0-5.45-3.78C551,1964.75,548.45,1967.61,548.45,1971.5Z"/><path d="M570.48,1974.8v-15.66h7v14.36c0,3.4,2.27,4.75,4.75,4.75s4.76-1.35,4.76-4.75v-14.36h7v15.66c0,5.18-4.1,9.72-11.72,9.72S570.48,1980,570.48,1974.8Z"/><path d="M614.82,1966.05h-3c-3.57,0-5.19,1.67-5.19,6v11.83h-7v-24.73h6.81v3.94a6.5,6.5,0,0,1,6.42-4.27,8.1,8.1,0,0,1,2,.22Z"/><path d="M633.93,1966.05h-3c-3.56,0-5.18,1.67-5.18,6v11.83h-7v-24.73h6.8v3.94a6.51,6.51,0,0,1,6.43-4.27,8,8,0,0,1,1.94.22Z"/><path d="M661.85,1973.55H643.43a5.87,5.87,0,0,0,10.64,2.43l7.29.76c-2.21,5.29-6.86,7.78-12.36,7.78a12.62,12.62,0,0,1-13-13c0-7.56,5.45-13,12.85-13,6.8,0,13,4.43,13,14.79Zm-18.58-4.69h11.07a5.36,5.36,0,0,0-5.45-4.54A5.52,5.52,0,0,0,643.27,1968.86Z"/><path d="M680.32,1958.49c5.34,0,9.18,3.4,9.18,9.18v16.2h-7v-14.42c0-3.13-2-4.43-4.22-4.43a6.85,6.85,0,0,0-5.23,2.81v16h-7v-24.73h6.85v1c0,.86-.1,1.94-.1,1.94A9.72,9.72,0,0,1,680.32,1958.49Z"/><path d="M704.13,1949.74v9.4h5.35v5.94h-5.35v11.17c0,1.57,1.24,1.79,2.32,1.79a31.29,31.29,0,0,0,3.24-.17v6s-3.4.32-5.45.32c-3.51,0-7.13-.59-7.13-5.56v-13.55h-3.89v-5.94h3.89v-9.4Z"/><path d="M711.31,1987.38h27v5.94h-27Z"/><path d="M755.65,1958.49c5.34,0,9.18,3.4,9.18,9.18v16.2h-7v-14.42c0-3.13-2-4.43-4.22-4.43a6.85,6.85,0,0,0-5.23,2.81v16h-7v-24.73h6.85v1c0,.86-.1,1.94-.1,1.94A9.72,9.72,0,0,1,755.65,1958.49Z"/><path d="M769,1971.5a13.23,13.23,0,1,1,13.23,13A12.86,12.86,0,0,1,769,1971.5Zm7,0c0,3.84,2.54,6.75,6.21,6.75s6.15-2.91,6.15-6.75-2.53-6.75-6.15-6.75S776.06,1967.61,776.06,1971.5Z"/><path d="M818.18,1980.74a9.08,9.08,0,0,1-7.73,3.78c-6.8,0-12-5.46-12-13s5.13-13,11.93-13c3.78,0,6.64,1.73,7.89,3.83,0-.81-.11-2.86-.11-4.7v-11.55h7v37.8h-7Zm-12.48-9.24c0,3.78,2.59,6.81,6.32,6.81s6.32-3,6.32-6.81-2.59-6.75-6.32-6.75S805.7,1967.67,805.7,1971.5Z"/><path d="M855.49,1973.55H837.08a5.87,5.87,0,0,0,10.63,2.43l7.29.76c-2.21,5.29-6.85,7.78-12.36,7.78a12.62,12.62,0,0,1-13-13c0-7.56,5.45-13,12.85-13,6.8,0,13,4.43,13,14.79Zm-18.58-4.69H848a5.35,5.35,0,0,0-5.45-4.54A5.52,5.52,0,0,0,836.91,1968.86Z"/><path d="M863.86,1975.12a4.7,4.7,0,1,1-4.7,4.7A4.71,4.71,0,0,1,863.86,1975.12Z"/><path d="M883,1976.31l5.62-17.17H896l-8.8,24.73h-8.69l-8.43-24.73h7.62Z"/><path d="M912.73,1967.4c0-1.78-1.4-2.92-4.1-2.92a16.83,16.83,0,0,0-7.46,2.32l-2.75-5.29a21.18,21.18,0,0,1,10.58-3c5.62,0,10.75,2.59,10.75,9.12v16.26h-7v-2.32c-1.3,1.94-4.1,3-6.91,3-5.24,0-8.64-3.73-8.64-7.78,0-4.7,3.45-7.61,9-7.61H911c1.19,0,1.73-.54,1.73-1.46Zm0,7.61v-1.78a3.06,3.06,0,0,1-2.16.54h-2.65c-2.21,0-3.51,1-3.51,2.7s1.35,2.92,3.51,2.92C910.46,1979.39,912.73,1978.09,912.73,1975Z"/><path d="M932.49,1983.87h-7v-37.8h7Z"/><path d="M938.16,1974.8v-15.66h7v14.36c0,3.4,2.27,4.75,4.75,4.75s4.76-1.35,4.76-4.75v-14.36h7v15.66c0,5.18-4.1,9.72-11.72,9.72S938.16,1980,938.16,1974.8Z"/><path d="M991.57,1973.55H973.15a5.87,5.87,0,0,0,10.64,2.43l7.29.76c-2.21,5.29-6.86,7.78-12.36,7.78a12.62,12.62,0,0,1-13-13c0-7.56,5.45-13,12.85-13,6.8,0,13,4.43,13,14.79ZM973,1968.86h11.07a5.36,5.36,0,0,0-5.45-4.54A5.52,5.52,0,0,0,973,1968.86Z"/><path d="M1018.78,1962.43H994.64V1956h24.14Zm0,10.8H994.64v-6.43h24.14Z"/><path d="M1046.86,1962.43h-24.14V1956h24.14Zm0,10.8h-24.14v-6.43h24.14Z"/><path d="M1076.94,1959.14v26.56c0,3.89-1.94,7.62-7.94,7.62h-10.74v-5.94h9c1.25,0,2.65-.32,2.65-2.22v-4.75c-1.19,2-4.16,3.73-7.67,3.73-6.69,0-11.88-5.08-11.88-12.8s5.13-12.85,11.83-12.85c3.72,0,6.59,1.73,7.83,3.83,0-.27-.11-.75-.11-2v-1.13Zm-13.12,18.95c3.72,0,6.26-2.75,6.26-6.75s-2.54-6.8-6.26-6.8-6.21,2.75-6.21,6.8S1060.15,1978.09,1063.82,1978.09Z"/><path d="M1081.42,1971.5a13.23,13.23,0,1,1,13.23,13A12.87,12.87,0,0,1,1081.42,1971.5Zm7,0c0,3.84,2.54,6.75,6.21,6.75s6.16-2.91,6.16-6.75-2.54-6.75-6.16-6.75S1088.44,1967.61,1088.44,1971.5Z"/><path d="M1126.08,1967.4c0-1.78-1.4-2.92-4.1-2.92a16.83,16.83,0,0,0-7.46,2.32l-2.75-5.29a21.18,21.18,0,0,1,10.58-3c5.62,0,10.75,2.59,10.75,9.12v16.26h-7v-2.32c-1.3,1.94-4.1,3-6.91,3-5.24,0-8.64-3.73-8.64-7.78,0-4.7,3.45-7.61,9-7.61h4.86c1.19,0,1.73-.54,1.73-1.46Zm0,7.61v-1.78a3.06,3.06,0,0,1-2.16.54h-2.65c-2.21,0-3.51,1-3.51,2.7s1.35,2.92,3.51,2.92C1123.81,1979.39,1126.08,1978.09,1126.08,1975Z"/><path d="M1145.84,1983.87h-7v-37.8h7Z"/><path d="M1148.87,1987.38h27v5.94h-27Z"/><path d="M1189.42,1976.31l5.62-17.17h7.39l-8.8,24.73h-8.69l-8.43-24.73h7.62Z"/><path d="M1219.12,1967.4c0-1.78-1.4-2.92-4.1-2.92a16.83,16.83,0,0,0-7.46,2.32l-2.75-5.29a21.18,21.18,0,0,1,10.58-3c5.62,0,10.75,2.59,10.75,9.12v16.26h-7v-2.32c-1.29,1.94-4.1,3-6.91,3-5.24,0-8.64-3.73-8.64-7.78,0-4.7,3.45-7.61,9-7.61h4.86c1.19,0,1.73-.54,1.73-1.46Zm0,7.61v-1.78a3.06,3.06,0,0,1-2.16.54h-2.65c-2.21,0-3.5,1-3.5,2.7s1.34,2.92,3.5,2.92C1216.85,1979.39,1219.12,1978.09,1219.12,1975Z"/><path d="M1238.88,1983.87h-7v-37.8h7Z"/><path d="M1244.55,1974.8v-15.66h7v14.36c0,3.4,2.27,4.75,4.76,4.75s4.75-1.35,4.75-4.75v-14.36h7v15.66c0,5.18-4.1,9.72-11.71,9.72S1244.55,1980,1244.55,1974.8Z"/><path d="M1298,1973.55h-18.41a5.87,5.87,0,0,0,10.63,2.43l7.29.76c-2.21,5.29-6.85,7.78-12.36,7.78a12.62,12.62,0,0,1-13-13c0-7.56,5.45-13,12.85-13,6.8,0,13,4.43,13,14.79Zm-18.58-4.69h11.07a5.35,5.35,0,0,0-5.45-4.54A5.52,5.52,0,0,0,1279.38,1968.86Z"/><polyline class="cls-4" points="947.04 2210.33 920.04 2237.33 893.04 2210.33"/><line class="cls-4" x1="919.89" y1="2233.48" x2="919.89" y2="2155.9"/><polyline class="cls-4" points="2282.07 1429.78 2255.07 1456.78 2228.07 1429.78"/><line class="cls-4" x1="2254.91" y1="1452.93" x2="2254.91" y2="1343.48"/><polyline class="cls-4" points="2228.07 1772.95 2255.07 1745.95 2282.07 1772.95"/><line class="cls-4" x1="2255.22" y1="1749.8" x2="2254.88" y2="1861.43"/><polyline class="cls-4" points="1677.25 1203.74 1704.25 1230.74 1677.25 1257.74"/><line class="cls-4" x1="1700.4" y1="1230.89" x2="1470.42" y2="1230.89"/><polyline class="cls-4" points="1677.25 1948.22 1704.25 1975.22 1677.25 2002.22"/><line class="cls-4" x1="1700.4" y1="1975.37" x2="1470.42" y2="1975.37"/><polyline class="cls-4" points="947.04 1752.66 920.04 1779.66 893.04 1752.66"/><line class="cls-4" x1="919.89" y1="1775.81" x2="919.89" y2="1698.23"/><rect class="cls-5" x="1739.56" y="148.98" width="1029.66" height="821.42"/><polyline class="cls-4" points="320.09 1205.02 347.09 1232.02 320.09 1259.02"/><rect class="cls-1" x="1818.91" y="484.41" width="296.3" height="149"/><ellipse class="cls-3" cx="1967.67" cy="316.02" rx="147.9" ry="81.85"/><polygon class="cls-2" points="1967.95 885.8 1819.95 808.17 1967.96 720.13 2116 808.17 1967.95 885.8"/><path d="M2199.6,542.53c-2.33-2.26-5.35-3.89-8-3.89-2.48,0-4.75,1.3-4.75,3.57,0,1.73,1.08,3.08,4.11,4.48l3.13,1.46c6,2.81,9.61,5.94,9.61,11.61s-4.81,11.18-13.12,11.18a18.66,18.66,0,0,1-13.56-5.67l4.16-5.62c2.81,2.86,6.37,4.48,9.24,4.48,3.24,0,5.23-1.78,5.23-4.1,0-2.59-2.32-4-5.94-5.72l-2.64-1.25c-5.08-2.37-8.26-5.83-8.26-10.58,0-6.64,5.94-10.64,12.63-10.64,4.38,0,8.86,2.16,12.48,5.29Z"/><path d="M2217,536.16v9.4h5.35v5.94H2217v11.18c0,1.56,1.25,1.78,2.33,1.78,1.78,0,3.24-.16,3.24-.16v6s-3.41.32-5.46.32c-3.51,0-7.13-.59-7.13-5.56V551.5h-3.88v-5.94H2210v-9.4Z"/><path d="M2240.91,553.82c0-1.78-1.41-2.92-4.11-2.92a16.71,16.71,0,0,0-7.45,2.33l-2.75-5.3a21.18,21.18,0,0,1,10.58-3c5.62,0,10.75,2.59,10.75,9.13v16.25h-7V568c-1.3,1.94-4.11,3-6.92,3-5.23,0-8.64-3.73-8.64-7.78,0-4.7,3.46-7.61,9-7.61h4.86c1.19,0,1.73-.54,1.73-1.46Zm0,7.61v-1.78a3.08,3.08,0,0,1-2.16.54h-2.65c-2.21,0-3.51,1-3.51,2.7s1.35,2.92,3.51,2.92C2238.64,565.81,2240.91,564.51,2240.91,561.43Z"/><path d="M2262.56,536.16v9.4h5.35v5.94h-5.35v11.18c0,1.56,1.24,1.78,2.32,1.78,1.78,0,3.24-.16,3.24-.16v6s-3.4.32-5.45.32c-3.51,0-7.13-.59-7.13-5.56V551.5h-3.89v-5.94h3.89v-9.4Z"/><path d="M2297,560H2278.6a5.88,5.88,0,0,0,10.64,2.43l7.29.75c-2.22,5.29-6.86,7.78-12.37,7.78a12.62,12.62,0,0,1-13-13c0-7.56,5.45-13,12.85-13,6.81,0,13,4.43,13,14.8Zm-18.57-4.7h11.07a5.37,5.37,0,0,0-5.46-4.54A5.51,5.51,0,0,0,2278.44,555.28Z"/><path d="M2333.68,555.76c0-3-1.95-4.32-4.11-4.32a6.76,6.76,0,0,0-5.13,2.81v16h-7V555.76c0-3-1.89-4.32-4.1-4.32a6.75,6.75,0,0,0-5.13,2.81v16h-7V545.56H2308v1c0,.86-.11,1.94-.11,1.94a9.61,9.61,0,0,1,7.4-3.56c3.67,0,6.53,1.57,7.94,4.48a9.93,9.93,0,0,1,8.31-4.48c5.35,0,9.13,3.4,9.13,9.18v16.2h-7Z"/><path d="M2370.72,560h-18.41a5.87,5.87,0,0,0,10.63,2.43l7.29.75c-2.21,5.29-6.85,7.78-12.36,7.78a12.62,12.62,0,0,1-13-13c0-7.56,5.45-13,12.85-13,6.8,0,13,4.43,13,14.8Zm-18.58-4.7h11.07a5.35,5.35,0,0,0-5.45-4.54A5.52,5.52,0,0,0,2352.14,555.28Z"/><path d="M2389.19,544.91c5.34,0,9.18,3.4,9.18,9.18v16.2h-7V555.87c0-3.13-2-4.43-4.21-4.43a6.86,6.86,0,0,0-5.24,2.81v16h-7V545.56h6.86v1c0,.86-.11,1.94-.11,1.94A9.74,9.74,0,0,1,2389.19,544.91Z"/><path d="M2413,536.16v9.4h5.35v5.94H2413v11.18c0,1.56,1.24,1.78,2.32,1.78,1.79,0,3.24-.16,3.24-.16v6s-3.4.32-5.45.32c-3.51,0-7.13-.59-7.13-5.56V551.5h-3.89v-5.94H2406v-9.4Z"/><path d="M2434.6,532.49h6.48l-12.8,37.8h-6.48Z"/><path d="M2485.52,539h-20.63v8.86h12.05v6.42h-12.05v9.61h20.63v6.43h-28.13v-37.8h28.13Z"/><path d="M2495.84,558,2488,545.56h8.1l4.37,7.4,4.54-7.4h7.88l-7.83,12.25,7.94,12.48h-8.16l-4.48-7.4-4.32,7.4H2488Z"/><path d="M2523.54,579.74h-7V545.56h7v1.19c0,1.18-.11,1.72-.11,2,1.19-2.1,4.1-3.83,7.83-3.83,6.8,0,12,5.45,12,13s-5.24,13-12,13c-3.51,0-6.43-1.68-7.67-3.78Zm-.16-21.82c0,3.78,2.59,6.81,6.31,6.81s6.32-3,6.32-6.81-2.59-6.75-6.32-6.75S2523.38,554.09,2523.38,557.92Z"/><path d="M2563,552.47h-3c-3.57,0-5.19,1.67-5.19,6v11.83h-7V545.56h6.81v3.94a6.5,6.5,0,0,1,6.42-4.27,8.1,8.1,0,0,1,1.95.22Z"/><path d="M2590.88,560h-18.42a5.88,5.88,0,0,0,10.64,2.43l7.29.75c-2.21,5.29-6.86,7.78-12.37,7.78a12.62,12.62,0,0,1-13-13c0-7.56,5.46-13,12.85-13,6.81,0,13,4.43,13,14.8Zm-18.58-4.7h11.07a5.36,5.36,0,0,0-5.46-4.54A5.51,5.51,0,0,0,2572.3,555.28Z"/><path d="M2609.61,553.12a9,9,0,0,0-6.1-2.54c-1.84,0-2.48.92-2.48,1.67s.54,1.46,1.83,1.89l4.11,1.3c5.07,1.67,6.8,4.43,6.8,7.67,0,3.62-3.08,7.83-9.83,7.83a16,16,0,0,1-10.91-3.89l3.73-4.86a12.27,12.27,0,0,0,7.29,3.08c1.67,0,2.7-.87,2.7-1.84,0-1.24-.81-1.78-2.81-2.37l-4.21-1.25c-4-1.29-5.72-4-5.72-7.23,0-4.05,3.67-7.67,9.61-7.67a14.75,14.75,0,0,1,10,3.67Z"/><path d="M2632.83,553.12a9,9,0,0,0-6.1-2.54c-1.84,0-2.48.92-2.48,1.67s.54,1.46,1.83,1.89l4.11,1.3c5.07,1.67,6.8,4.43,6.8,7.67,0,3.62-3.08,7.83-9.83,7.83a16,16,0,0,1-10.91-3.89l3.73-4.86a12.27,12.27,0,0,0,7.29,3.08c1.67,0,2.7-.87,2.7-1.84,0-1.24-.81-1.78-2.81-2.37l-4.21-1.25c-4-1.29-5.72-4-5.72-7.23,0-4.05,3.67-7.67,9.61-7.67a14.75,14.75,0,0,1,10,3.67Z"/><path d="M2650,570.29h-7V551.5h-3.46v-5.94H2650Zm-3.83-37.8a4.53,4.53,0,0,1,4.53,4.53,4.51,4.51,0,0,1-9,0A4.52,4.52,0,0,1,2646.12,532.49Z"/><path d="M2654.43,557.92a13.23,13.23,0,1,1,13.23,13A12.87,12.87,0,0,1,2654.43,557.92Zm7,0c0,3.84,2.54,6.75,6.21,6.75s6.16-2.91,6.16-6.75-2.54-6.75-6.16-6.75S2661.45,554,2661.45,557.92Z"/><path d="M2699.68,544.91c5.35,0,9.18,3.4,9.18,9.18v16.2h-7V555.87c0-3.13-2-4.43-4.21-4.43a6.87,6.87,0,0,0-5.24,2.81v16h-7V545.56h6.86v1c0,.86-.11,1.94-.11,1.94A9.74,9.74,0,0,1,2699.68,544.91Z"/><path d="M2208.29,304.55h-20.63v8.86h12v6.42h-12v9.62h20.63v6.42h-28.13v-37.8h28.13Z"/><path d="M2227,310.49c5.35,0,9.19,3.4,9.19,9.18v16.2h-7V321.45c0-3.13-2-4.43-4.21-4.43a6.87,6.87,0,0,0-5.24,2.81v16h-7V311.14h6.86v1c0,.87-.11,1.95-.11,1.95A9.71,9.71,0,0,1,2227,310.49Z"/><path d="M2250.79,301.74v9.4h5.34v5.94h-5.34v11.18c0,1.56,1.24,1.78,2.32,1.78,1.78,0,3.24-.16,3.24-.16v6s-3.4.33-5.45.33c-3.51,0-7.13-.6-7.13-5.57V317.08h-3.89v-5.94h3.89v-9.4Z"/><path d="M2276.17,318.05h-3c-3.57,0-5.19,1.68-5.19,6v11.82h-7V311.14h6.81v3.94a6.52,6.52,0,0,1,6.42-4.27,8.1,8.1,0,0,1,2,.22Z"/><path d="M2287.94,335.87h-1.78l-8.48-24.73h7.83l5.24,17.6,5.29-17.6h7.61l-9.88,28.62c-1.24,3.62-3.18,5.56-7.72,5.56h-4.86v-5.88h3.46a2.57,2.57,0,0,0,2.75-1.95Z"/><path d="M2318,298.07h6.48l-12.8,37.8h-6.48Z"/><path d="M2368.94,304.55h-20.63v8.86h12v6.42h-12v9.62h20.63v6.42h-28.13v-37.8h28.13Z"/><path d="M2379.25,323.56l-7.83-12.42h8.1l4.38,7.4,4.53-7.4h7.89l-7.83,12.26,7.94,12.47h-8.16l-4.48-7.4-4.32,7.4h-8.1Z"/><path d="M2408.41,335.87h-7V317.08h-3.45v-5.94h10.47Zm-3.83-37.8a4.52,4.52,0,0,1,4.53,4.54,4.51,4.51,0,0,1-9,0A4.51,4.51,0,0,1,2404.58,298.07Z"/><path d="M2423.32,301.74v9.4h5.34v5.94h-5.34v11.18c0,1.56,1.24,1.78,2.32,1.78,1.78,0,3.24-.16,3.24-.16v6s-3.4.33-5.46.33c-3.51,0-7.12-.6-7.12-5.57V317.08h-3.89v-5.94h3.89v-9.4Z"/><path d="M2452.69,335.87h-7.45v-37.8H2458c8.91,0,13.61,5.56,13.61,12.42s-4.7,12.58-13.61,12.58h-5.35Zm0-31.32v12.1h4.21c4.11,0,7.08-1.95,7.08-6.16s-3-5.94-7.08-5.94Z"/><path d="M2472.62,323.51a13.23,13.23,0,1,1,13.23,13A12.86,12.86,0,0,1,2472.62,323.51Zm7,0c0,3.83,2.54,6.75,6.21,6.75s6.15-2.92,6.15-6.75-2.53-6.75-6.15-6.75S2479.64,319.62,2479.64,323.51Z"/><path d="M2512,335.87h-7V317.08h-3.46v-5.94H2512Zm-3.84-37.8a4.53,4.53,0,0,1,4.54,4.54,4.51,4.51,0,0,1-9,0A4.52,4.52,0,0,1,2508.2,298.07Z"/><path d="M2532.39,310.49c5.35,0,9.18,3.4,9.18,9.18v16.2h-7V321.45c0-3.13-2-4.43-4.21-4.43a6.87,6.87,0,0,0-5.24,2.81v16h-7V311.14h6.86v1c0,.87-.11,1.95-.11,1.95A9.71,9.71,0,0,1,2532.39,310.49Z"/><path d="M2556.21,301.74v9.4h5.34v5.94h-5.34v11.18c0,1.56,1.24,1.78,2.32,1.78,1.78,0,3.24-.16,3.24-.16v6s-3.4.33-5.45.33c-3.51,0-7.13-.6-7.13-5.57V317.08h-3.89v-5.94h3.89v-9.4Z"/><path d="M2197.65,828.58c5,0,8.86-2.7,10.26-7.18h8.26c-2.21,8.91-10,14.1-18.52,14.1-11.12,0-19.71-8.16-19.71-19.55s8.59-19.55,19.71-19.55c8.53,0,16.31,5.18,18.52,14.09h-8.26c-1.4-4.48-5.24-7.18-10.26-7.18-7.13,0-11.88,5.4-11.88,12.64S2190.52,828.58,2197.65,828.58Z"/><path d="M2218.93,822.48a13.23,13.23,0,1,1,13.23,13A12.86,12.86,0,0,1,2218.93,822.48Zm7,0c0,3.83,2.54,6.75,6.21,6.75s6.15-2.92,6.15-6.75-2.53-6.75-6.15-6.75S2226,818.59,2226,822.48Z"/><path d="M2264.18,809.47c5.35,0,9.18,3.4,9.18,9.18v16.2h-7V820.43c0-3.13-2-4.43-4.21-4.43a6.87,6.87,0,0,0-5.24,2.81v16h-7V810.11h6.86v1c0,.86-.11,1.94-.11,1.94A9.74,9.74,0,0,1,2264.18,809.47Z"/><path d="M2297.33,831.72a9,9,0,0,1-7.72,3.78c-6.8,0-12-5.46-12-13s5.13-13,11.94-13c3.78,0,6.64,1.72,7.88,3.83,0-.81-.11-2.86-.11-4.7V797.05h7v37.8h-7Zm-12.47-9.24c0,3.78,2.59,6.8,6.32,6.8s6.32-3,6.32-6.8-2.59-6.75-6.32-6.75S2284.86,818.65,2284.86,822.48Z"/><path d="M2318.88,834.85h-7V816.06h-3.46v-5.95h10.48Zm-3.83-37.8a4.53,4.53,0,0,1,4.53,4.53,4.51,4.51,0,0,1-9,0A4.52,4.52,0,0,1,2315.05,797.05Z"/><path d="M2333.78,800.72v9.39h5.35v5.95h-5.35v11.17c0,1.57,1.25,1.79,2.33,1.79a31.29,31.29,0,0,0,3.24-.17v6s-3.41.32-5.46.32c-3.51,0-7.13-.59-7.13-5.56V816.06h-3.88v-5.95h3.88v-9.39Z"/><path d="M2352.47,834.85h-7V816.06H2342v-5.95h10.48Zm-3.84-37.8a4.53,4.53,0,0,1,4.54,4.53,4.51,4.51,0,0,1-9,0A4.52,4.52,0,0,1,2348.63,797.05Z"/><path d="M2357,822.48a13.23,13.23,0,1,1,13.23,13A12.87,12.87,0,0,1,2357,822.48Zm7,0c0,3.83,2.54,6.75,6.21,6.75s6.16-2.92,6.16-6.75-2.54-6.75-6.16-6.75S2364,818.59,2364,822.48Z"/><path d="M2402.2,809.47c5.35,0,9.18,3.4,9.18,9.18v16.2h-7V820.43c0-3.13-2-4.43-4.21-4.43a6.87,6.87,0,0,0-5.24,2.81v16h-7V810.11h6.86v1c0,.86-.11,1.94-.11,1.94A9.74,9.74,0,0,1,2402.2,809.47Z"/><path d="M2428.55,797.05H2435l-12.8,37.8h-6.47Z"/><path d="M2451.34,834.85v-37.8h7.51v31.37h16v6.43Z"/><path d="M2477,822.48a13.23,13.23,0,1,1,13.23,13A12.87,12.87,0,0,1,2477,822.48Zm7,0c0,3.83,2.54,6.75,6.21,6.75s6.16-2.92,6.16-6.75-2.54-6.75-6.16-6.75S2484,818.59,2484,822.48Z"/><path d="M2506.37,822.48a13.23,13.23,0,1,1,13.23,13A12.86,12.86,0,0,1,2506.37,822.48Zm7,0c0,3.83,2.53,6.75,6.21,6.75s6.15-2.92,6.15-6.75-2.54-6.75-6.15-6.75S2513.39,818.59,2513.39,822.48Z"/><path d="M2544.33,844.3h-7V810.11h7v1.19c0,1.19-.11,1.73-.11,2,1.19-2.11,4.1-3.83,7.83-3.83,6.8,0,12,5.45,12,13s-5.24,13-12,13c-3.52,0-6.43-1.68-7.67-3.78Zm-.16-21.82c0,3.78,2.59,6.8,6.31,6.8s6.32-3,6.32-6.8-2.59-6.75-6.32-6.75S2544.17,818.65,2544.17,822.48Z"/><polyline class="cls-4" points="404.09 2361.52 275.72 2361.52 275.72 1231.1 344.56 1231.1"/></svg>